<svg xmlns="http://www.w3.org/2000/svg" width="396" height="753.402" viewBox="0 0 396 753.402">
  <g id="Grupo_908388" data-name="Grupo 908388" transform="translate(-540.964 -1081.628)">
    <g id="Grupo_908329" data-name="Grupo 908329" transform="translate(758.4 1120.997)">
      <path id="Trazado_675008" data-name="Trazado 675008" d="M683.421,1196.588s16.887-71.573,73.854-79.441c0,0,11.085-1.361,14.775,10.844s-18.346,12.293-31.968,17.2S694.7,1170.915,683.421,1196.588Z" transform="translate(-681.837 -1101.932)" fill="#c1eff5"/>
      <path id="Trazado_675009" data-name="Trazado 675009" d="M682.682,1188.5s-5.922-59.285,35.649-80.325c0,0,8.133-3.964,14.177,4.414s-10.816,14.254-19.959,21.6S684.557,1165.854,682.682,1188.5Z" transform="translate(-682.391 -1107.235)" fill="#c1eff5"/>
    </g>
    <g id="Grupo_908331" data-name="Grupo 908331" transform="translate(540.964 1194.316)" opacity="0.8">
      <path id="Trazado_675010" data-name="Trazado 675010" d="M630.588,1218.2s24.435-13.683,13.031-32.253c0,0-9.122-11.4-18.9-14.335,0,0,5.214,27.692,0,28.343s-3.584-31.275-3.584-31.275-25.737-12.38-35.836-11.4c0,0,15.963,27.041,10.751,26.389s-23.131-28.017-23.131-28.017-26.389-4.888-30.624,10.751,2.607,23.457,6.516,24.433,29,.652,28.344,3.91-17.593,8.47-27.041,5.538c0,0,10.425,25.737,24.109,24.435s17.917-9.774,26.389-10.425,14.66,1.63,10.424,3.91-18.569.747-25.411,6.563-12.38,9.4.326,12.006,35.51.978,40.072-8.8Z" transform="translate(-540.964 -1154.924)" fill="#3da6b4"/>
      <g id="Grupo_908330" data-name="Grupo 908330" transform="translate(13.391 16.36)">
        <path id="Trazado_675011" data-name="Trazado 675011" d="M549.674,1165.565s68.415,22.153,76.233,46.914c0,0-.324,11.076,6.516,23.781v4.887s-7.166-16.615-11.076-18.9C621.347,1222.252,636.658,1200.75,549.674,1165.565Z" transform="translate(-549.674 -1165.565)" fill="#3da6b4"/>
        <path id="Trazado_675012" data-name="Trazado 675012" d="M604.638,1212.61s10.552,16.023,4.537,35.526l-2.715-.729s2.635-21.481-2.884-32.286S604.638,1212.61,604.638,1212.61Z" transform="translate(-521.89 -1141.915)" fill="#3da6b4"/>
      </g>
    </g>
    <g id="Grupo_908333" data-name="Grupo 908333" transform="translate(757.29 1348.578)">
      <path id="Trazado_675013" data-name="Trazado 675013" d="M725.9,1279.868s4.715-28.679,26.867-24.116c0,0,14.35,4.871,20.666,13.373,0,0-28.864,4.7-27.659,10.018s31.787-7.558,31.787-7.558,21.177,20.739,23.794,30.939c0,0-32.03-6.021-29.551-1.164s35.516,12.668,35.516,12.668,14.1,24.023.334,33.682-23.81,5.749-26.146,2.279-10.885-28.063-13.834-26.276-2.048,20.162,4.154,28.344c0,0-28.8-1.076-32.365-14.889s3.2-20.938.845-29.434-6.771-13.731-7.5-8.791,5.835,18.385,2.577,27.116-4.8,15.4-11.831,3.927-13.506-34.307-5.581-42.212Z" transform="translate(-664.116 -1255.26)" fill="#b6cfff"/>
      <g id="Grupo_908332" data-name="Grupo 908332" transform="translate(0 24.593)">
        <path id="Trazado_675014" data-name="Trazado 675014" d="M805.161,1329.079s-45.8-58.93-72.724-57.808c0,0-10.694,4.233-25.511,2.048l-4.767,1.728s18.746,1.121,22.353,4.129C724.511,1279.177,740.081,1256.635,805.161,1329.079Z" transform="translate(-670.657 -1271.256)" fill="#b6cfff"/>
        <path id="Trazado_675015" data-name="Trazado 675015" d="M717.937,1272.885s-19.363-4.632-36.268,8.131l1.671,2.391s20.03-10.164,32.525-8.6S717.937,1272.885,717.937,1272.885Z" transform="translate(-681.669 -1270.821)" fill="#b6cfff"/>
      </g>
    </g>
    <g id="Grupo_908335" data-name="Grupo 908335" transform="translate(790.825 1177.064)">
      <path id="Trazado_675016" data-name="Trazado 675016" d="M723.116,1221.046s-29.866-16.724-15.929-39.425c0,0,11.151-13.937,23.1-17.522,0,0-6.373,33.85,0,34.646s4.38-38.23,4.38-38.23,31.461-15.133,43.8-13.938c0,0-19.513,33.054-13.141,32.257s28.274-34.248,28.274-34.248,32.257-5.973,37.434,13.142-3.186,28.673-7.964,29.868-35.443.8-34.646,4.778,21.5,10.353,33.054,6.769c0,0-12.744,31.461-29.47,29.868s-21.9-11.948-32.257-12.744-17.92,1.991-12.742,4.778,22.7.915,31.061,8.024,15.133,11.489-.4,14.677-43.407,1.195-48.983-10.753Z" transform="translate(-703.481 -1143.702)" fill="#c1eff5"/>
      <g id="Grupo_908334" data-name="Grupo 908334" transform="translate(3.861 19.999)">
        <path id="Trazado_675017" data-name="Trazado 675017" d="M812.222,1156.71s-83.628,27.081-93.186,57.345c0,0,.4,13.54-7.964,29.072v5.973s8.76-20.31,13.539-23.1C724.611,1226,705.9,1199.72,812.222,1156.71Z" transform="translate(-703.262 -1156.71)" fill="#c1eff5"/>
        <path id="Trazado_675018" data-name="Trazado 675018" d="M713.8,1214.218s-12.9,19.585-5.544,43.425l3.318-.892s-3.221-26.258,3.525-39.465S713.8,1214.218,713.8,1214.218Z" transform="translate(-705.992 -1127.801)" fill="#c1eff5"/>
      </g>
    </g>
    <g id="Grupo_908379" data-name="Grupo 908379" transform="translate(555.396 1222.654)">
      <g id="Grupo_908336" data-name="Grupo 908336" transform="translate(0 0)">
        <rect id="Rectángulo_302431" data-name="Rectángulo 302431" width="301.75" height="412.649" fill="#6b98f6"/>
        <rect id="Rectángulo_302432" data-name="Rectángulo 302432" width="276.035" height="390.144" transform="translate(12.858 11.135)" fill="#f1f9ff"/>
        <path id="Trazado_675019" data-name="Trazado 675019" d="M631.008,1140.14V1154.2a14.05,14.05,0,0,0,14.044,14.056h75.434a14.05,14.05,0,0,0,14.044-14.056V1140.14Z" transform="translate(-537.36 -1140.139)" fill="#25468f"/>
      </g>
      <g id="Grupo_908337" data-name="Grupo 908337" transform="translate(44.9 346.054)">
        <rect id="Rectángulo_302433" data-name="Rectángulo 302433" width="34.152" height="3.457" fill="#3da6b4"/>
        <rect id="Rectángulo_302434" data-name="Rectángulo 302434" width="34.152" height="3.457" transform="translate(42.062)" fill="#3da6b4"/>
        <rect id="Rectángulo_302435" data-name="Rectángulo 302435" width="47.364" height="3.457" transform="translate(0 7.671)" fill="#3da6b4"/>
      </g>
      <g id="Grupo_908339" data-name="Grupo 908339" transform="translate(74.366 57.879)">
        <g id="Grupo_908338" data-name="Grupo 908338" transform="translate(10.196)">
          <path id="Trazado_675020" data-name="Trazado 675020" d="M626.636,1168.18h12.5c3.477,0,6.172.977,7.969,2.774a8.649,8.649,0,0,1,2.344,6.33,8.492,8.492,0,0,1-5.86,8.477l6.681,9.767H643.24l-5.937-8.751h-4.651v8.751h-6.016Zm12.111,13.283c2.93,0,4.609-1.563,4.609-3.946,0-2.577-1.8-3.9-4.726-3.9h-5.979v7.851Z" transform="translate(-626.636 -1167.789)" fill="#3da6b4"/>
          <path id="Trazado_675021" data-name="Trazado 675021" d="M640.022,1183.807V1168.18h6.016v15.471c0,4.453,2.228,6.758,5.9,6.758s5.9-2.225,5.9-6.563V1168.18h6.016v15.431c0,8.284-4.649,12.346-11.995,12.346S640.022,1191.855,640.022,1183.807Z" transform="translate(-612.205 -1167.789)" fill="#3da6b4"/>
          <path id="Trazado_675022" data-name="Trazado 675022" d="M654.442,1168.18h6.016v21.878h13.634v5.469h-19.65Z" transform="translate(-596.659 -1167.789)" fill="#3da6b4"/>
          <path id="Trazado_675023" data-name="Trazado 675023" d="M666.079,1168.18h20.627v5.353h-14.65v5.547h12.892v5.353H672.056v5.744H686.9v5.351H666.079Z" transform="translate(-584.114 -1167.789)" fill="#3da6b4"/>
          <path id="Trazado_675024" data-name="Trazado 675024" d="M677.773,1191.746l3.556-4.26a12.539,12.539,0,0,0,8.165,3.321c2.46,0,3.946-.977,3.946-2.656,0-1.523-.937-2.3-5.509-3.477-5.509-1.407-9.063-2.93-9.063-8.439,0-4.96,3.984-8.244,9.57-8.244a15.832,15.832,0,0,1,10.158,3.477L695.47,1176a12.832,12.832,0,0,0-7.109-2.7c-2.307,0-3.516,1.056-3.516,2.461,0,1.8,1.172,2.383,5.9,3.595,5.546,1.447,8.672,3.437,8.672,8.283,0,5.43-4.142,8.476-10.041,8.476A17.4,17.4,0,0,1,677.773,1191.746Z" transform="translate(-571.507 -1167.992)" fill="#3da6b4"/>
        </g>
        <rect id="Rectángulo_302436" data-name="Rectángulo 302436" width="148.302" height="1.914" transform="translate(0 34.188)" fill="#3da6b4"/>
      </g>
      <g id="Grupo_908350" data-name="Grupo 908350" transform="translate(31.11 97.628)">
        <g id="Grupo_908342" data-name="Grupo 908342" transform="translate(180.248)">
          <g id="Grupo_908340" data-name="Grupo 908340" transform="translate(0 8.56)">
            <path id="Trazado_675025" data-name="Trazado 675025" d="M737.578,1241.165H687.652v-49.926h49.926ZM690,1238.812h45.221v-45.221H690Z" transform="translate(-687.652 -1191.239)" fill="#a8ccff"/>
          </g>
          <g id="Grupo_908341" data-name="Grupo 908341" transform="translate(7.271)">
            <path id="Trazado_675026" data-name="Trazado 675026" d="M710.082,1235.571a3.528,3.528,0,0,1-2.718-1.28l-15.4-18.636a3.527,3.527,0,0,1,5.436-4.495l12.219,14.779,22.1-37.1a3.527,3.527,0,1,1,6.06,3.61l-24.663,41.4a3.535,3.535,0,0,1-2.76,1.712C710.263,1235.566,710.174,1235.571,710.082,1235.571Z" transform="translate(-691.151 -1187.12)" fill="#fd9927"/>
          </g>
        </g>
        <g id="Grupo_908349" data-name="Grupo 908349" transform="translate(0 15.361)">
          <g id="Grupo_908346" data-name="Grupo 908346" transform="translate(30.814 0.568)">
            <g id="Grupo_908343" data-name="Grupo 908343">
              <rect id="Rectángulo_302437" data-name="Rectángulo 302437" width="110.908" height="4.871" fill="#3da6b4"/>
            </g>
            <g id="Grupo_908344" data-name="Grupo 908344" transform="translate(0 21.756)">
              <rect id="Rectángulo_302438" data-name="Rectángulo 302438" width="102.212" height="4.871" fill="#3da6b4"/>
            </g>
            <g id="Grupo_908345" data-name="Grupo 908345" transform="translate(0 10.878)">
              <rect id="Rectángulo_302439" data-name="Rectángulo 302439" width="30.233" height="4.871" transform="translate(80.675)" fill="#3da6b4"/>
              <rect id="Rectángulo_302440" data-name="Rectángulo 302440" width="72.297" height="4.871" fill="#3da6b4"/>
            </g>
          </g>
          <g id="Grupo_908348" data-name="Grupo 908348">
            <g id="Grupo_908347" data-name="Grupo 908347">
              <path id="Trazado_675027" data-name="Trazado 675027" d="M606.9,1199.435l-4.96,1.378-1.025-3.938,7.4-2.363h3.387v27.763H606.9Z" transform="translate(-600.914 -1194.512)" fill="#3da6b4"/>
            </g>
            <path id="Trazado_675028" data-name="Trazado 675028" d="M607.633,1207.938a1.753,1.753,0,1,1,1.752,1.754A1.753,1.753,0,0,1,607.633,1207.938Z" transform="translate(-593.67 -1181.929)" fill="#3da6b4"/>
          </g>
        </g>
      </g>
      <g id="Grupo_908362" data-name="Grupo 908362" transform="translate(30.896 172.206)">
        <g id="Grupo_908353" data-name="Grupo 908353" transform="translate(180.851)">
          <g id="Grupo_908351" data-name="Grupo 908351" transform="translate(0 8.56)">
            <path id="Trazado_675029" data-name="Trazado 675029" d="M737.763,1277.053H687.839v-49.926h49.924Zm-47.573-2.352H735.41v-45.221H690.189Z" transform="translate(-687.839 -1227.127)" fill="#a8ccff"/>
          </g>
          <g id="Grupo_908352" data-name="Grupo 908352" transform="translate(7.269)">
            <path id="Trazado_675030" data-name="Trazado 675030" d="M710.268,1271.458a3.528,3.528,0,0,1-2.718-1.28l-15.4-18.636a3.527,3.527,0,1,1,5.436-4.495l12.219,14.779,22.1-37.1a3.527,3.527,0,1,1,6.06,3.609l-24.662,41.4a3.535,3.535,0,0,1-2.76,1.712C710.449,1271.454,710.36,1271.458,710.268,1271.458Z" transform="translate(-691.337 -1223.008)" fill="#fd9927"/>
          </g>
        </g>
        <g id="Grupo_908361" data-name="Grupo 908361" transform="translate(0 15.361)">
          <g id="Grupo_908355" data-name="Grupo 908355">
            <g id="Grupo_908354" data-name="Grupo 908354">
              <path id="Trazado_675031" data-name="Trazado 675031" d="M600.811,1254.371l9.424-8.017c3.755-3.167,5.122-4.927,5.122-7.39a4.1,4.1,0,0,0-4.418-4.262c-2.5,0-4.223,1.367-6.334,4.1l-3.4-2.658c2.618-3.676,5.2-5.748,10.087-5.748,5.357,0,9.034,3.283,9.034,8.25,0,4.3-2.307,6.608-7.117,10.6l-5.629,4.692H620.6v4.223H600.811Z" transform="translate(-600.811 -1230.4)" fill="#3da6b4"/>
            </g>
            <path id="Trazado_675032" data-name="Trazado 675032" d="M611.9,1243.826a1.74,1.74,0,1,1,1.739,1.741A1.741,1.741,0,0,1,611.9,1243.826Z" transform="translate(-588.856 -1217.804)" fill="#3da6b4"/>
          </g>
          <g id="Grupo_908360" data-name="Grupo 908360" transform="translate(31.946 0.568)">
            <g id="Grupo_908359" data-name="Grupo 908359">
              <g id="Grupo_908356" data-name="Grupo 908356">
                <rect id="Rectángulo_302441" data-name="Rectángulo 302441" width="116.545" height="4.871" fill="#3da6b4"/>
              </g>
              <g id="Grupo_908357" data-name="Grupo 908357" transform="translate(0 21.756)">
                <rect id="Rectángulo_302442" data-name="Rectángulo 302442" width="107.406" height="4.871" fill="#3da6b4"/>
              </g>
              <g id="Grupo_908358" data-name="Grupo 908358" transform="translate(0 10.878)">
                <rect id="Rectángulo_302443" data-name="Rectángulo 302443" width="31.77" height="4.871" transform="translate(84.775)" fill="#3da6b4"/>
                <rect id="Rectángulo_302444" data-name="Rectángulo 302444" width="75.972" height="4.871" fill="#3da6b4"/>
              </g>
            </g>
          </g>
        </g>
      </g>
      <g id="Grupo_908373" data-name="Grupo 908373" transform="translate(30.551 247.335)">
        <g id="Grupo_908365" data-name="Grupo 908365" transform="translate(181.195)">
          <g id="Grupo_908363" data-name="Grupo 908363" transform="translate(0 8.559)">
            <path id="Trazado_675033" data-name="Trazado 675033" d="M737.763,1313.2H687.839V1263.28h49.924Zm-47.573-2.35H735.41v-45.221H690.189Z" transform="translate(-687.839 -1263.28)" fill="#a8ccff"/>
          </g>
          <g id="Grupo_908364" data-name="Grupo 908364" transform="translate(7.269)">
            <path id="Trazado_675034" data-name="Trazado 675034" d="M710.268,1307.611a3.535,3.535,0,0,1-2.718-1.28l-15.4-18.636a3.527,3.527,0,1,1,5.436-4.495l12.219,14.779,22.1-37.1a3.527,3.527,0,0,1,6.06,3.61l-24.662,41.4a3.534,3.534,0,0,1-2.76,1.712C710.449,1307.607,710.36,1307.611,710.268,1307.611Z" transform="translate(-691.337 -1259.161)" fill="#fd9927"/>
          </g>
        </g>
        <g id="Grupo_908370" data-name="Grupo 908370" transform="translate(32.29 15.929)">
          <g id="Grupo_908369" data-name="Grupo 908369">
            <g id="Grupo_908366" data-name="Grupo 908366">
              <rect id="Rectángulo_302445" data-name="Rectángulo 302445" width="116.545" height="4.871" fill="#3da6b4"/>
            </g>
            <g id="Grupo_908367" data-name="Grupo 908367" transform="translate(0 21.755)">
              <rect id="Rectángulo_302446" data-name="Rectángulo 302446" width="107.406" height="4.871" fill="#3da6b4"/>
            </g>
            <g id="Grupo_908368" data-name="Grupo 908368" transform="translate(0 10.878)">
              <rect id="Rectángulo_302447" data-name="Rectángulo 302447" width="31.77" height="4.871" transform="translate(84.775)" fill="#3da6b4"/>
              <rect id="Rectángulo_302448" data-name="Rectángulo 302448" width="75.972" height="4.871" fill="#3da6b4"/>
            </g>
          </g>
        </g>
        <g id="Grupo_908372" data-name="Grupo 908372" transform="translate(0 15.62)">
          <g id="Grupo_908371" data-name="Grupo 908371">
            <path id="Trazado_675035" data-name="Trazado 675035" d="M600.645,1289.215l3.29-3.061a8.739,8.739,0,0,0,7.041,3.52c2.641,0,4.63-1.606,4.63-4.133,0-2.639-2.41-4.131-6.159-4.131h-2.182l-.765-2.947,7.232-7.691H602.137v-4.094h17.716v3.52l-7.462,7.652c4.248.613,7.884,2.8,7.884,7.616,0,4.935-3.828,8.455-9.376,8.455A12.693,12.693,0,0,1,600.645,1289.215Z" transform="translate(-600.645 -1266.678)" fill="#3da6b4"/>
          </g>
          <path id="Trazado_675036" data-name="Trazado 675036" d="M610.74,1279.852a1.7,1.7,0,1,1,1.7,1.7A1.7,1.7,0,0,1,610.74,1279.852Z" transform="translate(-589.762 -1254.313)" fill="#3da6b4"/>
        </g>
      </g>
      <g id="Grupo_908378" data-name="Grupo 908378" transform="translate(141.094 305.818)">
        <g id="Grupo_908374" data-name="Grupo 908374" transform="translate(9.326 32.627)">
          <path id="Trazado_675037" data-name="Trazado 675037" d="M679.1,1321.654a21.239,21.239,0,0,1-20.745-16.909,1.451,1.451,0,0,1,2.843-.582,18.278,18.278,0,0,0,35.768.172,1.451,1.451,0,0,1,2.837.611A21.277,21.277,0,0,1,679.1,1321.654Z" transform="translate(-658.328 -1303.005)" fill="#3da6b4"/>
        </g>
        <g id="Grupo_908375" data-name="Grupo 908375" transform="translate(9.287 8.927)">
          <path id="Trazado_675038" data-name="Trazado 675038" d="M659.76,1310.452a1.587,1.587,0,0,1-.276-.025,1.448,1.448,0,0,1-1.147-1.7,21.179,21.179,0,0,1,41.324-1.124,1.45,1.45,0,0,1-2.814.706,18.279,18.279,0,0,0-35.664.969A1.451,1.451,0,0,1,659.76,1310.452Z" transform="translate(-658.309 -1291.6)" fill="#3da6b4"/>
        </g>
        <g id="Grupo_908376" data-name="Grupo 908376">
          <path id="Trazado_675039" data-name="Trazado 675039" d="M683.941,1347.506a30.1,30.1,0,1,1,30.1-30.1A30.135,30.135,0,0,1,683.941,1347.506Zm0-56.077a25.977,25.977,0,1,0,25.976,25.976A26.006,26.006,0,0,0,683.941,1291.429Z" transform="translate(-653.84 -1287.304)" fill="#3da6b4"/>
        </g>
        <g id="Grupo_908377" data-name="Grupo 908377" transform="translate(21.326 26.331)">
          <rect id="Rectángulo_302449" data-name="Rectángulo 302449" width="11.922" height="1.908" transform="translate(2.813)" fill="#3da6b4"/>
          <rect id="Rectángulo_302450" data-name="Rectángulo 302450" width="11.922" height="1.908" transform="translate(2.813 7.809)" fill="#3da6b4"/>
          <rect id="Rectángulo_302451" data-name="Rectángulo 302451" width="17.548" height="1.908" transform="translate(0 3.771)" fill="#3da6b4"/>
        </g>
      </g>
    </g>
    <g id="Grupo_908383" data-name="Grupo 908383" transform="translate(793.54 1510.78)">
      <path id="Trazado_675049" data-name="Trazado 675049" d="M808.193,1211.6c-6.2-3.218-11.177-1.2-11.177-1.2-18.986-2.23-24.525,19.914-24.267,27.533s1.126,15.8-7.353,25.7c-24.492,28.589,26.8,29.853,26.8,29.853.435-22.845,27.818-14.509,26.617-12.2C853.918,1289.717,822.306,1218.918,808.193,1211.6Z" transform="translate(-714.867 -1209.774)" fill="#0b3563"/>
      <path id="Trazado_675050" data-name="Trazado 675050" d="M761.313,1250.354s-3.339-5.083-6.029-5.183-7.673-1.494-7.275-.5,3.489,1.1,3.787,1.694-4.585,1.5-5.979,1.594-4.685,0-4.585.7,5.927,3.589,10.041,3.191a27.861,27.861,0,0,1,9.2,1.194Z" transform="translate(-741.228 -1157.867)" fill="#ffae73"/>
      <path id="Trazado_675051" data-name="Trazado 675051" d="M798.761,1271.757a49.975,49.975,0,0,1-5.108,7.724c-3.967,4.971-10.086,10.712-17.767,11.843a19.058,19.058,0,0,1-10.554-1.712l-.012,0c-9.328-4.142-16.343-13.665-16.343-13.665a7.67,7.67,0,0,1,1.046-7.526s18.839,4.237,20.633,3.339,12.822-25.366,14.809-29.443c4.222-8.662,10.925-11.147,10.925-11.147Z" transform="translate(-730.385 -1177.626)" fill="#ffa051"/>
      <path id="Trazado_675052" data-name="Trazado 675052" d="M783.512,1256.464c-3.967,4.971-10.086,10.712-17.767,11.843a19.058,19.058,0,0,1-10.554-1.712c.365.047,9.681,1.2,13.395-5.446,3.789-6.777,7.886-17.542,13.512-13.953C784.526,1248.744,784.419,1252.593,783.512,1256.464Z" transform="translate(-720.245 -1154.61)" fill="#ff8a3a"/>
      <path id="Trazado_675053" data-name="Trazado 675053" d="M809.131,1330.123s5.749,5.246,4.625,8.972-6.307,6.212-7.008,10.767-3.507,7.041-6.029,7.041H788.689s-1.857-3.206,2.628-4.173,6.179-6.319,5.9-11.287a87.6,87.6,0,0,1,.42-11.6l9.533-2.21Z" transform="translate(-670.478 -1032.653)" fill="#074a92"/>
      <path id="Trazado_675054" data-name="Trazado 675054" d="M796.854,1329.521s2.067,22.222-.456,23.463l-32.3-.065s0-3.726,5.188-4.555,14.3-3.867,15.843-10.63S796.854,1329.521,796.854,1329.521Z" transform="translate(-706.852 -1029.823)" fill="#074a92"/>
      <path id="Trazado_675055" data-name="Trazado 675055" d="M822.152,1258.369a128.933,128.933,0,0,1,0,14.929c-.321,5.4-5.781,12.624-6.555,14.414-1.945,4.485-4.135,5.213-4.135,5.213l-16.959,4.157-5.962,1.459-18.8-5.616s-8.564-23.9-5.125-37.357a103.451,103.451,0,0,1,8.692-22.8s12.747-5.031,35.319-1.274Z" transform="translate(-707.305 -1179.228)" fill="#ffa051"/>
      <path id="Trazado_675056" data-name="Trazado 675056" d="M803.175,1251.52c-.32,5.4-.818,10.422-1.592,12.211-1.945,4.485-4.135,5.213-4.135,5.213L780.49,1273.1l-7.363-2.165s24.585-3.727,21.859-24.878Z" transform="translate(-693.291 -1155.247)" fill="#f8caa4"/>
      <path id="Trazado_675057" data-name="Trazado 675057" d="M772.611,1256.653s-9.313,28.982-9.909,38.848,17.8,140.173,18.538,144.72c.7,4.285,6.019,7.018,6.019,7.018a8.06,8.06,0,0,0,5.942.456c4.845-1.369,6.377-3.006,6.377-3.006s7.248-92.933,2.763-126.13a525.718,525.718,0,0,1-4.537-61.906Z" transform="translate(-708.978 -1139.327)" fill="#2e7d87"/>
      <path id="Trazado_675058" data-name="Trazado 675058" d="M804.262,1256.308s14.2,19.056,15.527,31.938,2.077,58.132,4.9,70.691,13.185,36.726,13.185,75.894a7.819,7.819,0,0,1-4.4,3.441,36.175,36.175,0,0,1-3.872,1.072,6.09,6.09,0,0,1-6.81-3.234c-7.008-14.108-29.327-59.609-30.471-69.054-.808-6.685-7.856-50.924-23.231-76.883-3.689-6.232,2.265-31.014,2.265-31.014Z" transform="translate(-701.181 -1139.845)" fill="#3da6b4"/>
      <path id="Trazado_675059" data-name="Trazado 675059" d="M766.375,1254.865s3.739,2.958,11.165,3.109c8.87.178,30.847-2.263,30.847-2.263a18.212,18.212,0,0,1,.938,5.609s-26.845,6.773-42.4.989C766.928,1262.309,764.923,1258.534,766.375,1254.865Z" transform="translate(-704.231 -1142.014)" fill="#1e3865"/>
      <g id="Grupo_908382" data-name="Grupo 908382" transform="translate(67.134 114.44)">
        <path id="Trazado_675060" data-name="Trazado 675060" d="M772.1,1264.66a4.615,4.615,0,1,1,4.047-4.58A4.343,4.343,0,0,1,772.1,1264.66Zm0-7.819a3.292,3.292,0,1,0,2.706,3.238A3.013,3.013,0,0,0,772.1,1256.842Z" transform="translate(-768.052 -1255.5)" fill="#fff"/>
      </g>
      <rect id="Rectángulo_302453" data-name="Rectángulo 302453" width="36.465" height="49.915" rx="1.511" transform="matrix(0.754, -0.657, 0.657, 0.754, 72.772, 104.398)" fill="#25468f"/>
      <path id="Trazado_675061" data-name="Trazado 675061" d="M787.319,1257c-.31.082-11.578,1.406-11.58,3.734,0,2.693,3.3,6.3,6.417,6.129,1.262-.068,7.073-5.414,7.073-5.414Z" transform="translate(-689.366 -1138.813)" fill="#ffae73"/>
      <path id="Trazado_675062" data-name="Trazado 675062" d="M788.473,1238.4c-1.281-3.111-2.03-7.846-2.01-13.708l-.851.168-14.313,2.836s.325,4.5.335,8.747v.1c.017,3.687-2.49,7.383,3.421,8.845C776.883,1245.843,791.166,1244.927,788.473,1238.4Z" transform="translate(-696.306 -1187.362)" fill="#ffae73"/>
      <path id="Trazado_675063" data-name="Trazado 675063" d="M771.192,1227.592s.325,4.5.335,8.747c8.009-.226,12.244-7.533,13.978-11.583Z" transform="translate(-696.199 -1187.261)" fill="#f48f4e"/>
      <path id="Trazado_675064" data-name="Trazado 675064" d="M773.913,1246.7s18.951.313,18.964-11.493,2.468-19.714-9.631-20.412-14.456,3.8-15.42,7.741S768.983,1246.31,773.913,1246.7Z" transform="translate(-701.596 -1202.347)" fill="#ffae73"/>
      <path id="Trazado_675065" data-name="Trazado 675065" d="M770.4,1216.071s5.188,13.85,13.152,15.9,11.417-.085,11.417-.085a22.546,22.546,0,0,1-7.375-13.322S774.317,1209.478,770.4,1216.071Z" transform="translate(-697.385 -1203.919)" fill="#0b3563"/>
      <path id="Trazado_675066" data-name="Trazado 675066" d="M776.679,1216.434s-3.849,1.439-5.431,4.245a19.09,19.09,0,0,0-2.563,10.84s-3.91-9.416.485-14.739C773.828,1211.133,776.679,1216.434,776.679,1216.434Z" transform="translate(-702.374 -1203.158)" fill="#0b3563"/>
      <path id="Trazado_675067" data-name="Trazado 675067" d="M784.957,1257.392a12.944,12.944,0,0,0-4.505-.616c-1.8.253-3.141-.035-3.141.471s2.33.741,2.826.983S784.957,1257.392,784.957,1257.392Z" transform="translate(-687.004 -1139.21)" fill="#ffae73"/>
      <path id="Trazado_675068" data-name="Trazado 675068" d="M785.378,1230.658s13.452.944,18.611,13.48,14.939,33.583,14.939,37.124-5.466,14.456-34.816,20.731c0,0-3.036-3.194-2.853-5.719,0,0,18.323-15.737,18.273-17.577-.093-3.479-3-8.072-19.089-24.164C776.067,1250.16,785.378,1230.658,785.378,1230.658Z" transform="translate(-684.055 -1178.392)" fill="#ffa051"/>
    </g>
    <g id="Grupo_908387" data-name="Grupo 908387" transform="translate(599.984 1081.628)">
      <g id="Grupo_908384" data-name="Grupo 908384">
        <path id="Trazado_675069" data-name="Trazado 675069" d="M618.674,1081.932s-10.49-1.773-17.139,3.251-7.712,3.4-11.465,6.5.088,6.8-1.982,8.865-2.148,6.059.922,7.095,1,6.649,7.649,7.386,3.67,3.818,9.977,4.285,11.523.686,14.848,2.079,6.338-.046,7.289-2.578,3.609.735,4.385-2.726-1.994-4.828-.443-7.634S638.1,1085.7,618.674,1081.932Z" transform="translate(-568.96 -1081.628)" fill="#1e3865"/>
        <path id="Trazado_675070" data-name="Trazado 675070" d="M607.637,1178.27a2.591,2.591,0,0,0-.443,2.773l.007.014c.681,1.841,2.9,3.889,5.484,5.932.331.262.623.5.878.722.068.056.136.114.2.172s.1.093.153.136c2.408,2.189,1.51,2.7,5.839,7.143,4.937,5.064,8.311,5.132,9.269,4.662.807-.4-.861-3.1-2.709-6.121-.09-.146-.177-.294-.27-.44-.245-.4-.491-.812-.734-1.216-2.17-3.643-1.632-5.363-1.163-10.811.382-4.427,6.708-24.761,6.708-24.761l-9.4-1.552s-2.714,16.176-5.81,18.686c-1.659,1.337-3.522,1.369-5.117,2.364-.112.068-.224.139-.331.212A12.287,12.287,0,0,0,607.637,1178.27Z" transform="translate(-539.784 -976.662)" fill="#ffae73"/>
        <path id="Trazado_675071" data-name="Trazado 675071" d="M607.637,1165.875a2.591,2.591,0,0,0-.443,2.773l.007.015c.832,1.839,3,3.877,5.494,5.912.326.268.613.511.868.742.068.056.136.114.2.172s.1.093.153.136c2.408,2.189,1.51,2.7,5.839,7.143,4.937,5.064,8.311,5.132,9.269,4.662.807-.4-.861-3.1-2.709-6.122a20.874,20.874,0,0,1-8.782-6.375c-2.977-3.745-4.978-8.568-7.007-11.356-.112.068-.224.139-.331.212A12.3,12.3,0,0,0,607.637,1165.875Z" transform="translate(-539.784 -964.267)" fill="#1e3865"/>
        <path id="Trazado_675072" data-name="Trazado 675072" d="M642.872,1173.815c.6,2.894,4.728,2.383,9.337,1.221s3.522.189,10.086-.584,8.537-3.237,8.731-4.217c.173-.868-3.074-1.151-6.559-1.528-.438-.046-.878-.1-1.321-.148-3.933-.465-6.829-2.981-10.417-5.039-3.4-1.951-8.5-9.955-8.5-9.955l-9.006.779s4.779,7.148,6.63,10.256c1.09,1.829,1.048,4.259.929,6.134A11.583,11.583,0,0,0,642.872,1173.815Z" transform="translate(-499.34 -978.608)" fill="#ffae73"/>
        <path id="Trazado_675073" data-name="Trazado 675073" d="M647.792,1166.119c4.609-1.16,3.522.19,10.086-.584s8.537-3.237,8.731-4.217c.173-.868-3.074-1.151-6.559-1.527l-.032.068a18.532,18.532,0,0,1-9.39,2.992c-4.456.139-9.186-1.1-12.263-1.034a11.583,11.583,0,0,0,.09,3.082C639.056,1167.793,643.183,1167.282,647.792,1166.119Z" transform="translate(-494.923 -969.692)" fill="#1e3865"/>
        <path id="Trazado_675074" data-name="Trazado 675074" d="M642,1146.756l-8.264,22.723-10.786,29.672a17.851,17.851,0,0,1-5.847-.491,25.3,25.3,0,0,1-5.669-2.712s2.831-31.795,8.4-50.077c1.425-4.692,3.035-8.49,4.825-10.633C633.415,1124.738,642,1146.756,642,1146.756Z" transform="translate(-533.405 -1008.918)" fill="#fc7600"/>
        <path id="Trazado_675075" data-name="Trazado 675075" d="M668.153,1125.884c-5.531-1.741-21.252.656-37.041,3.862l-3.347-5.436-34.168-2.427s-10.7,23.669-4.811,40.949c1.143,3.352,6.613,3.471,6.613,3.471s20.019.219,26.617.173c16.983-.119,35.859-11.927,38.308-12.435,4.008-.832,5.672,7.187,9.743,15.588s38,37.065,38,37.065,5.183.014,7.318-.8a7.22,7.22,0,0,0,3.133-2.006S680.627,1129.812,668.153,1125.884Z" transform="translate(-568.374 -1023.979)" fill="#fd9927"/>
        <path id="Trazado_675076" data-name="Trazado 675076" d="M609.172,1112.443c.054.034-5.966,2.138-10.015.376-3.809-1.651-6.729-7.877-6.674-7.88,1.727-.092,3.612-1.617,5-11.535l.737.258,12.4,4.363s-.868,3.974-1.42,7.756C608.735,1108.957,608.494,1112,609.172,1112.443Z" transform="translate(-560.548 -1064.764)" fill="#ffae73"/>
        <path id="Trazado_675077" data-name="Trazado 675077" d="M607.242,1097.873s-.528,2.785-1.262,6.766c-7.111-1.228-10.108-7.3-11.136-11.129Z" transform="translate(-557.168 -1064.613)" fill="#f9924f"/>
        <path id="Trazado_675078" data-name="Trazado 675078" d="M609.854,1114.42s-16.937-2.152-15.434-12.678.328-17.9,11.2-16.966,12.4,5.246,12.754,8.882S614.3,1114.71,609.854,1114.42Z" transform="translate(-557.909 -1077.234)" fill="#ffae73"/>
        <path id="Trazado_675079" data-name="Trazado 675079" d="M620.608,1088.45s-10.767,9.412-18.129,10.217-10.169-1.542-10.169-1.542a28.779,28.779,0,0,0,6.89-9.473,5.173,5.173,0,0,1,4.249-3.083C608.707,1084.077,618.679,1083.8,620.608,1088.45Z" transform="translate(-560.795 -1077.788)" fill="#1e3865"/>
        <path id="Trazado_675080" data-name="Trazado 675080" d="M601.158,1086.9s3.648,3.478,4.808,6.07c1.119,2.5,1.491,8.5.632,10.884,0,0,5.567-11.018,2.332-16.33C605.5,1081.888,601.158,1086.9,601.158,1086.9Z" transform="translate(-548.124 -1077.023)" fill="#1e3865"/>
        <path id="Trazado_675081" data-name="Trazado 675081" d="M632.022,1130.715c-.27,34.256.051,27.1-3.672,30.372-.9.79-3.432,1.274-6.771,1.518-10.5.771-28.974-.83-29.689-2.765-2.471-6.7-.773-8.8-2.867-19.065-.219-1.092-.489-2.274-.8-3.561-1.737-7.051-3.393-9.441,2.505-20.829,5.35-10.314,10.925-18.7,11.433-18.4,14.364,8.391,15.468,1.245,15.468,1.245S632.155,1114.007,632.022,1130.715Z" transform="translate(-568.972 -1058.213)" fill="#3da6b4"/>
        <path id="Trazado_675082" data-name="Trazado 675082" d="M633.738,1161.547l-10.786,29.672a17.846,17.846,0,0,1-5.847-.491,25.309,25.309,0,0,1-5.669-2.711s2.831-31.8,8.4-50.077Z" transform="translate(-533.405 -1000.986)" fill="#fd9927"/>
        <path id="Trazado_675083" data-name="Trazado 675083" d="M599.357,1098.493s14.736,2.394,16.509,8.717,12.207,43.51,12.207,43.51-7.471,1.4-10.954-2.036-12.253-31.985-12.253-31.985Z" transform="translate(-550.703 -1057.476)" fill="#3da6b4"/>
        <path id="Trazado_675084" data-name="Trazado 675084" d="M620.152,1145.826c-10.5.771-28.974-.83-29.689-2.765-2.471-6.7-.774-8.8-2.867-19.065l4.964-14.3s-.725,15.891,3.988,20.036,19.238,7.931,21.539,11.407A12.721,12.721,0,0,1,620.152,1145.826Z" transform="translate(-567.546 -1041.434)" fill="#667ee8"/>
        <path id="Trazado_675085" data-name="Trazado 675085" d="M596.015,1122.827s10.346-2.381,12.024-1.471,5.786,4.227,6.307,5.39-3.728-.858-5.107-1.219c-.893-.233-3.235.6-4.395.995-4.879,1.663-7.882.847-7.882.847Z" transform="translate(-555.489 -1025.031)" fill="#ffae73"/>
        <path id="Trazado_675086" data-name="Trazado 675086" d="M612.528,1097.979s-13.907.956-18.676,7.707c-6.713,9.505-19.878,49.9-12.131,55.219,8.724,5.992,39.517,1.306,39.517,1.306s.992-4.8-.45-7.112-24.666-5.893-25.744-6.956,13.235-20.969,13.211-24.182S612.528,1097.979,612.528,1097.979Z" transform="translate(-579.352 -1058.213)" fill="#3da6b4"/>
        <path id="Trazado_675087" data-name="Trazado 675087" d="M601.173,1122.418s2.191,2.785,2.906,3.113a2.11,2.11,0,0,0,1.172.243l-1.481-2.622Z" transform="translate(-548.103 -1023.213)" fill="#ffae73"/>
        <path id="Trazado_675088" data-name="Trazado 675088" d="M600.959,1121.234l6.333,3.021a1.127,1.127,0,0,1-1.043.411,15.17,15.17,0,0,1-2.743-.734Z" transform="translate(-548.409 -1024.909)" fill="#ffae73"/>
      </g>
      <g id="Grupo_908386" data-name="Grupo 908386" transform="translate(39.197 69.03)">
        <g id="Grupo_908385" data-name="Grupo 908385">
          <path id="Trazado_675089" data-name="Trazado 675089" d="M601.812,1147.82l49.932-.352,14.757-37.457-49.854.352Z" transform="translate(-586.384 -1110.011)" fill="#1e3865"/>
          <path id="Trazado_675090" data-name="Trazado 675090" d="M661.4,1124.812l-65.935.465.01,1.455,65.349-.461Z" transform="translate(-595.469 -1088.814)" fill="#1e3865"/>
        </g>
        <path id="Trazado_675091" data-name="Trazado 675091" d="M619.96,1119.163a1.731,1.731,0,0,0-1.712-2.366,3.409,3.409,0,0,0-3.043,2.4,1.728,1.728,0,0,0,1.712,2.364A3.406,3.406,0,0,0,619.96,1119.163Z" transform="translate(-567.336 -1100.293)" fill="#e4f8fb"/>
      </g>
    </g>
  </g>
</svg>
