<svg xmlns="http://www.w3.org/2000/svg" width="389.212" height="788.63" viewBox="0 0 389.212 788.63">
  <g id="Grupo_908435" data-name="Grupo 908435" transform="translate(-320.961 -1181.916)">
    <g id="Grupo_908434" data-name="Grupo 908434" transform="translate(320.961 1181.916)">
      <g id="Grupo_908433" data-name="Grupo 908433">
        <path id="Trazado_675108" data-name="Trazado 675108" d="M332.991,1248.009s-30.945-1.514-14.529,92.8c0,0,11.043,32.015-2.9,52.649H520.79v-145.45Z" transform="translate(-298.158 -1156.223)" fill="#a2cdfc"/>
        <g id="Grupo_908417" data-name="Grupo 908417" transform="translate(0 498.17)">
          <g id="Grupo_908412" data-name="Grupo 908412" transform="translate(154.572 115.444)">
            <path id="Trazado_675109" data-name="Trazado 675109" d="M375.108,1516.479s-20.229-23.6-1.246-38.591c0,0,13.865-8.394,25.169-7.712,0,0-16.018,26.862-10.836,29.535s15.693-31.22,15.693-31.22,31.551-3.061,41.7,1.82c0,0-26.974,22.073-21.293,23.388s34.815-20.352,34.815-20.352,29.366,5,27.8,22.912-11.684,23.447-16.132,22.97-30.463-10.406-31.03-6.764,15.094,15.554,26.06,16.111c0,0-20.705,22.833-34.464,16.244s-14.935-17.035-23.511-20.954-15.9-3.907-12.358.088,19.063,7.879,23.968,16.557,9.307,14.527-4.928,12.386-37.378-12.56-38.393-24.489Z" transform="translate(-340.916 -1467.542)" fill="#c1eff5"/>
            <g id="Grupo_908411" data-name="Grupo 908411" transform="translate(0 29.06)">
              <path id="Trazado_675110" data-name="Trazado 675110" d="M476.587,1482.512s-79.761-3.074-97.376,19.737c0,0-3.9,11.667-15.883,22.291l-1.867,5.093s13.822-14.572,18.767-15.456C380.227,1514.177,372.492,1485.917,476.587,1482.512Z" transform="translate(-345.018 -1482.373)" fill="#c1eff5"/>
              <path id="Trazado_675111" data-name="Trazado 675111" d="M371.378,1504.876s-17.12,12.662-18.309,35.283l3.108.278s5.469-23.392,15.35-32.538S371.378,1504.876,371.378,1504.876Z" transform="translate(-353.069 -1462.709)" fill="#c1eff5"/>
            </g>
          </g>
          <g id="Grupo_908414" data-name="Grupo 908414" transform="translate(0 51.368)">
            <path id="Trazado_675112" data-name="Trazado 675112" d="M392.22,1518.174s32.18-18.021,17.163-42.478c0,0-12.015-15.017-24.887-18.877,0,0,6.866,36.469,0,37.328s-4.718-41.189-4.718-41.189-33.9-16.3-47.2-15.017c0,0,21.023,35.613,14.159,34.752s-30.465-36.9-30.465-36.9-34.753-6.437-40.331,14.159,3.433,30.892,8.582,32.18,38.185.858,37.327,5.15-23.168,11.155-35.613,7.293c0,0,13.732,33.9,31.751,32.18s23.6-12.872,34.754-13.73,19.308,2.146,13.73,5.149-24.456.984-33.467,8.643-16.3,12.38.429,15.813,46.768,1.288,52.775-11.584Z" transform="translate(-274.183 -1434.841)" fill="#5f89d3"/>
            <g id="Grupo_908413" data-name="Grupo 908413" transform="translate(17.635 21.548)">
              <path id="Trazado_675113" data-name="Trazado 675113" d="M283.183,1445.838s90.1,29.176,100.4,61.785c0,0-.429,14.588,8.58,31.322v6.435s-9.439-21.881-14.588-24.885C377.577,1520.494,397.743,1492.177,283.183,1445.838Z" transform="translate(-283.183 -1445.838)" fill="#5f89d3"/>
              <path id="Trazado_675114" data-name="Trazado 675114" d="M340.91,1495.317s13.9,21.1,5.974,46.786l-3.576-.96s3.47-28.29-3.8-42.52S340.91,1495.317,340.91,1495.317Z" transform="translate(-231.928 -1402.21)" fill="#5f89d3"/>
            </g>
          </g>
          <g id="Grupo_908416" data-name="Grupo 908416" transform="translate(141.345)">
            <path id="Trazado_675115" data-name="Trazado 675115" d="M374.2,1518.473s-42.418-23.754-22.622-55.993c0,0,15.836-19.8,32.8-24.885,0,0-9.049,48.075,0,49.205s6.221-54.3,6.221-54.3,44.681-21.493,62.214-19.8c0,0-27.712,46.944-18.664,45.812s40.157-48.639,40.157-48.639,45.812-8.484,53.165,18.664-4.524,40.723-11.312,42.419-50.338,1.131-49.205,6.786,30.54,14.706,46.942,9.615c0,0-18.1,44.681-41.854,42.42s-31.106-16.969-45.812-18.1-25.451,2.829-18.1,6.787,32.239,1.3,44.117,11.394,21.491,16.32-.566,20.844-61.65,1.7-69.568-15.272Z" transform="translate(-346.319 -1408.625)" fill="#06355c"/>
            <g id="Grupo_908415" data-name="Grupo 908415" transform="translate(5.483 28.403)">
              <path id="Trazado_675116" data-name="Trazado 675116" d="M498.436,1423.121s-118.773,38.46-132.348,81.444c0,0,.566,19.23-11.31,41.287v8.485s12.442-28.845,19.228-32.805C374.006,1521.532,347.424,1484.2,498.436,1423.121Z" transform="translate(-343.685 -1423.121)" fill="#5f89d3"/>
              <path id="Trazado_675117" data-name="Trazado 675117" d="M360.21,1488.343s-18.319,27.814-7.875,61.673l4.712-1.266s-4.575-37.292,5.008-56.05S360.21,1488.343,360.21,1488.343Z" transform="translate(-349.117 -1365.611)" fill="#5f89d3"/>
            </g>
          </g>
          <path id="Trazado_675118" data-name="Trazado 675118" d="M400.507,1595.39A83.092,83.092,0,0,0,483.6,1512.3H317.415A83.092,83.092,0,0,0,400.507,1595.39Z" transform="translate(-232.704 -1309.159)" fill="#fd9927"/>
          <path id="Trazado_675119" data-name="Trazado 675119" d="M416,1594.755a83.157,83.157,0,0,1-93.412-82.457h20.643A83.106,83.106,0,0,0,416,1594.755Z" transform="translate(-227.746 -1309.159)" fill="#fd801a"/>
          <path id="Trazado_675120" data-name="Trazado 675120" d="M485.309,1561.882H316.829a10.252,10.252,0,0,1,10.252-10.252H475.057a10.252,10.252,0,0,1,10.252,10.252Z" transform="translate(-233.267 -1271.422)" fill="#fd9927"/>
          <rect id="Rectángulo_302454" data-name="Rectángulo 302454" width="170.806" height="2.549" transform="translate(81.978 203.139)" fill="#fd801a"/>
        </g>
        <g id="Grupo_908419" data-name="Grupo 908419" transform="translate(211.264 86.381)">
          <path id="Trazado_675121" data-name="Trazado 675121" d="M479.041,1273.134s-10.317-19.466,5.141-26.878c0,0,10.893-3.648,18.6-1.418,0,0-15.255,16.083-12.088,18.737s15.708-19.147,15.708-19.147,22.292,2.793,28.553,7.746c0,0-22.085,11.067-18.362,12.859s27.24-8.656,27.24-8.656,19.529,8.024,15.658,20.167-11.727,14.394-14.728,13.374-19.445-11.935-20.4-9.5,8.017,13.1,15.512,15.193c0,0-17.868,12.568-26.357,5.87s-7.677-14.1-13-18.146-10.386-5.176-8.56-1.862,11.957,8.414,14,15.176,4.175,11.493-5.337,7.8-23.891-14.5-22.737-22.9Z" transform="translate(-446.441 -1244.116)" fill="#c1eff5"/>
          <g id="Grupo_908418" data-name="Grupo 908418" transform="translate(0 23.591)">
            <path id="Trazado_675122" data-name="Trazado 675122" d="M553.128,1268.031s-54.675-14.533-70.4-1.5a40.882,40.882,0,0,1-14.45,12.942l-2.085,3.232s11.824-7.927,15.382-7.767C481.573,1274.936,480.62,1254.193,553.128,1268.031Z" transform="translate(-450.126 -1261.103)" fill="#c1eff5"/>
            <path id="Trazado_675123" data-name="Trazado 675123" d="M472.773,1274.538s-13.808,6.093-18.15,21.551l2.105.675s7.42-15.323,15.676-20.112S472.773,1274.538,472.773,1274.538Z" transform="translate(-454.623 -1256.17)" fill="#c1eff5"/>
          </g>
        </g>
        <g id="Grupo_908421" data-name="Grupo 908421" transform="translate(155.354)">
          <path id="Trazado_675124" data-name="Trazado 675124" d="M434.945,1262.2s-30.552-15.933-17.208-39.19c0,0,10.8-14.357,22.713-18.322,0,0-5.4,34.249,1.039,34.859s3.262-38.6,3.262-38.6,31.2-16.169,43.657-15.336c0,0-18.642,33.841-12.256,32.848s27.422-35.306,27.422-35.306,32.276-6.976,38.057,12.1-2.346,28.944-7.119,30.29-35.635,1.862-34.716,5.845,21.948,9.774,33.461,5.822c0,0-11.879,32.036-28.756,30.934s-22.4-11.364-32.838-11.856-17.97,2.54-12.678,5.19,22.866.239,31.494,7.142,15.569,11.107.039,14.778-43.639,2.5-49.606-9.35Z" transform="translate(-414.364 -1181.916)" fill="#06355c"/>
          <g id="Grupo_908420" data-name="Grupo 908420" transform="translate(6.408 19.797)">
            <path id="Trazado_675125" data-name="Trazado 675125" d="M523.224,1196.171s-83.332,29.753-92.041,60.491c0,0,.807,13.611-7.142,29.489l.179,6.009s8.206-20.7,12.931-23.645C437.151,1268.515,417.531,1242.631,523.224,1196.171Z" transform="translate(-417.009 -1196.171)" fill="#5f89d3"/>
            <path id="Trazado_675126" data-name="Trazado 675126" d="M426.009,1262.042s-12.389,20.091-4.277,43.857l3.312-1s-4.027-26.324,2.365-39.813S426.009,1262.042,426.009,1262.042Z" transform="translate(-418.978 -1172.062)" fill="#5f89d3"/>
          </g>
        </g>
        <rect id="Rectángulo_302455" data-name="Rectángulo 302455" width="214.263" height="279.428" transform="translate(47.846 147.612)" fill="#8abcf0"/>
        <rect id="Rectángulo_302456" data-name="Rectángulo 302456" width="210.661" height="279.428" transform="translate(54.851 147.612)" fill="#f6faff"/>
        <path id="Trazado_675127" data-name="Trazado 675127" d="M557.73,1303.83l0,0H347.066c1.165-15.93-.59-27.5-3.4-35.816-5.4-16-14.714-20.009-14.714-20.009H527.622c16.957,0,30.105,10.215,33.684,23.775.133.51.257,1.018.365,1.525C565.07,1288.822,557.869,1303.547,557.73,1303.83Z" transform="translate(-292.215 -1156.223)" fill="#f6faff"/>
        <path id="Trazado_675128" data-name="Trazado 675128" d="M553.611,1298.229l0,0H342.947c1.165-15.93-.59-27.5-3.4-35.816,21.528,3.941,74.849,12.342,131.921,10.927,36.923-.917,66.1-3.386,86.088-5.636C560.951,1283.221,553.75,1297.946,553.611,1298.229Z" transform="translate(-288.096 -1150.622)" fill="#f6faff"/>
        <g id="Grupo_908423" data-name="Grupo 908423" transform="translate(82.198 206.804)">
          <rect id="Rectángulo_302457" data-name="Rectángulo 302457" width="115.888" height="5.24" rx="0.349" transform="translate(13.865)" fill="#b0d5fd"/>
          <rect id="Rectángulo_302458" data-name="Rectángulo 302458" width="72.209" height="5.24" rx="0.349" transform="translate(13.865 8.816)" fill="#b0d5fd"/>
          <g id="Grupo_908422" data-name="Grupo 908422" transform="translate(0 0)">
            <path id="Trazado_675129" data-name="Trazado 675129" d="M364.79,1344.038v-10.7h-1.412q-1.285,0-1.285-1.071c0-.512.336-.878,1.007-1.091a7.426,7.426,0,0,1,1.637-.257q1.123-.086,1.81-.085.662,0,.835.267a3.2,3.2,0,0,1,.171,1.36v11.582h1.455q1.414,0,1.414,1.219,0,1.286-1.414,1.285h-5.866a1.607,1.607,0,0,1-1.037-.332,1.123,1.123,0,0,1-.418-.93q0-1.241,1.435-1.242Z" transform="translate(-361.686 -1330.83)" fill="#b0d5fd"/>
          </g>
        </g>
        <g id="Grupo_908425" data-name="Grupo 908425" transform="translate(82.11 261.99)">
          <rect id="Rectángulo_302459" data-name="Rectángulo 302459" width="115.888" height="5.24" rx="0.349" transform="translate(13.952 0)" fill="#cbe4fd"/>
          <rect id="Rectángulo_302460" data-name="Rectángulo 302460" width="72.209" height="5.24" rx="0.349" transform="translate(13.952 8.816)" fill="#cbe4fd"/>
          <g id="Grupo_908424" data-name="Grupo 908424">
            <path id="Trazado_675130" data-name="Trazado 675130" d="M370.667,1383.556q0,1.071-1.494,1.069h-6.206q-1.344,0-1.343-1.078a1.361,1.361,0,0,1,.36-.8q.529-.6,1.551-1.815,1.55-1.95,2.591-3.368.36-.473,1.022-1.439a3.477,3.477,0,0,0,.549-1.627,1.674,1.674,0,0,0-.474-1.219,1.617,1.617,0,0,0-1.21-.482,1.859,1.859,0,0,0-1.25.454,2.146,2.146,0,0,0-.567,1.134,12.842,12.842,0,0,1-.342,1.249.957.957,0,0,1-.926.605,1.058,1.058,0,0,1-.889-.417,1.41,1.41,0,0,1-.3-.946,4.535,4.535,0,0,1,.208-1.343,4.034,4.034,0,0,1,1.607-2.233,4.673,4.673,0,0,1,2.668-.737,4.126,4.126,0,0,1,2.876,1.043,3.644,3.644,0,0,1,1.192,2.8,4.887,4.887,0,0,1-.851,2.615q-.473.74-1.948,2.615-.756.966-2.384,2.8h4.087Q370.667,1382.449,370.667,1383.556Z" transform="translate(-361.623 -1370.568)" fill="#cbe4fd"/>
          </g>
        </g>
        <g id="Grupo_908427" data-name="Grupo 908427" transform="translate(81.871 307.444)">
          <rect id="Rectángulo_302461" data-name="Rectángulo 302461" width="115.888" height="5.24" rx="0.349" transform="translate(14.191 0.582)" fill="#cbe4fd"/>
          <rect id="Rectángulo_302462" data-name="Rectángulo 302462" width="72.209" height="5.24" rx="0.349" transform="translate(14.191 9.398)" fill="#cbe4fd"/>
          <g id="Grupo_908426" data-name="Grupo 908426">
            <path id="Trazado_675131" data-name="Trazado 675131" d="M370.733,1413.547a4.05,4.05,0,0,1-1.412,3.229,4.971,4.971,0,0,1-3.384,1.161,4.737,4.737,0,0,1-2.707-.754,3.447,3.447,0,0,1-1.779-2.882,1.212,1.212,0,0,1,.308-.832,1.015,1.015,0,0,1,.793-.349c.336,0,.651.226.948.678a14.467,14.467,0,0,0,.832,1.237,2.158,2.158,0,0,0,1.643.678,2.057,2.057,0,0,0,1.935-1.005,2.7,2.7,0,0,0,.271-1.278q0-1.893-2.225-2.107-1.256-.117-1.257-1.064a1.013,1.013,0,0,1,.73-.987q1.362-.5,1.382-.521a1.868,1.868,0,0,0,.731-1.683,1.513,1.513,0,0,0-.424-1.13,1.556,1.556,0,0,0-1.137-.416,2.079,2.079,0,0,0-1.387.425,2.793,2.793,0,0,0-.714,1.258.88.88,0,0,1-.886.676.91.91,0,0,1-.761-.405,1.475,1.475,0,0,1-.3-.89,2.466,2.466,0,0,1,.329-1.2,3.69,3.69,0,0,1,1.662-1.567,4.864,4.864,0,0,1,2.243-.522,3.911,3.911,0,0,1,2.737,1,3.38,3.38,0,0,1,1.093,2.62,3.589,3.589,0,0,1-1.625,3.094A3.505,3.505,0,0,1,370.733,1413.547Z" transform="translate(-361.451 -1403.298)" fill="#cbe4fd"/>
          </g>
        </g>
        <g id="Grupo_908428" data-name="Grupo 908428" transform="translate(106.453 160.083)">
          <rect id="Rectángulo_302463" data-name="Rectángulo 302463" width="73.927" height="6.088" rx="0.405" transform="translate(18.638)" fill="#b0d5fd"/>
          <path id="Rectángulo_302464" data-name="Rectángulo 302464" d="M.4,0H110.8a.4.4,0,0,1,.4.4V5.683a.405.405,0,0,1-.405.405H.405A.405.405,0,0,1,0,5.683V.4A.4.4,0,0,1,.4,0Z" transform="translate(0 9.386)" fill="#b0d5fd"/>
        </g>
        <g id="Grupo_908429" data-name="Grupo 908429" transform="translate(67.694 288.52)">
          <path id="Trazado_675132" data-name="Trazado 675132" d="M437.44,1370.084c-22.949,0-44.726-2.88-60.962-7-16.4-4.158-25.236-10.954-25.236-16.983,0-5.463,7.2-10.489,20.823-14.533h0c-13.056,3.876-20.037,9.566-20.037,14.533,0,5.512,9.049,10.969,24.828,14.968,16.177,4.1,37.693,6.36,60.584,6.36s44.405-2.258,60.583-6.36c15.779-4,24.829-9.456,24.829-14.968,0-5.838-9.53-13.093-24.87-18.933-17.441-6.643-38.943-9.106-60.542-9.106-40.551,0-57.244,4.734-71.727,10.665h0c14.547-5.958,31.033-12.71,71.727-12.71,21.685,0,43.279,3.675,60.8,10.346,15.664,5.965,25.395,13.528,25.395,19.737,0,6.029-9.034,11.638-25.435,15.8C481.968,1366.017,460.388,1370.084,437.44,1370.084Z" transform="translate(-351.242 -1316.021)" fill="#fd9927"/>
        </g>
        <path id="Trazado_675153" data-name="Trazado 675153" d="M495.882,1487.067s6.5-22.62,14.138-19.951S495.882,1487.067,495.882,1487.067Z" transform="translate(-227.32 -1071.13)" fill="#06355c"/>
        <path id="Trazado_675154" data-name="Trazado 675154" d="M500.157,1482.822s16.607-10.9,20.256-7.531S500.157,1482.822,500.157,1482.822Z" transform="translate(-225.658 -1068.118)" fill="#06355c"/>
        <path id="Trazado_675155" data-name="Trazado 675155" d="M495.995,1446.54H366.455a1.581,1.581,0,0,1-1.576-1.576h0a1.581,1.581,0,0,1,1.576-1.576h129.54a1.581,1.581,0,0,1,1.576,1.576h0A1.581,1.581,0,0,1,495.995,1446.54Z" transform="translate(-278.247 -1080.269)" fill="#cbe4fd"/>
        <path id="Trazado_675156" data-name="Trazado 675156" d="M495.995,1451.085H366.455a1.581,1.581,0,0,1-1.576-1.576h0a1.582,1.582,0,0,1,1.576-1.578h129.54a1.582,1.582,0,0,1,1.576,1.578h0A1.581,1.581,0,0,1,495.995,1451.085Z" transform="translate(-278.247 -1078.503)" fill="#cbe4fd"/>
        <path id="Trazado_675157" data-name="Trazado 675157" d="M495.995,1456.12H366.455a1.581,1.581,0,0,1-1.576-1.576h0a1.582,1.582,0,0,1,1.576-1.578h129.54a1.582,1.582,0,0,1,1.576,1.578h0A1.581,1.581,0,0,1,495.995,1456.12Z" transform="translate(-278.247 -1076.546)" fill="#cbe4fd"/>
        <rect id="Rectángulo_302466" data-name="Rectángulo 302466" width="115.581" height="3.153" rx="0.21" transform="translate(86.632 383.413)" fill="#cbe4fd"/>
        <g id="Grupo_908432" data-name="Grupo 908432" transform="translate(86.632 244.491)">
          <path id="Trazado_675133" data-name="Trazado 675133" d="M538.062,1438.768s-1.624,15.792-3.408,18.778-9.368,12.531-12.6,14.4,1.973-12.576,1.315-15.388-2.66,5.132-4.085,5.32-1.058-6.962-1.109-9.565,6.932-9.023,9.392-14.563S538.062,1438.768,538.062,1438.768Z" transform="translate(-279.667 -1179.477)" fill="#ff9490"/>
          <path id="Trazado_675134" data-name="Trazado 675134" d="M446.23,1379.588l-3.63-6.846s1.8-12.2-13.487-19.921c0,0-5.589-2.275-8.742,2.283-2.907,4.2,5.536,3.438,5.083,10.621s2.955,11.393,7.7,13.733l3.922,4.543Z" transform="translate(-381.834 -1265.935)" fill="#ff9490"/>
          <path id="Trazado_675135" data-name="Trazado 675135" d="M584.714,1358.837s-13.13,64.439-85.382,85.495c-22.553,6.573-73.791-67.68-73.791-67.68s1.8-6.844,13.087-5.273c0,0,49.889,33.029,56.169,36.618,5.575,3.182,42.226-40.927,58.935-48.042A42.641,42.641,0,0,1,584.714,1358.837Z" transform="translate(-375.833 -1261.553)" fill="#fd801a"/>
          <g id="Grupo_908430" data-name="Grupo 908430" transform="translate(0 84.61)">
            <rect id="Rectángulo_302465" data-name="Rectángulo 302465" width="13.495" height="67.882" transform="translate(14.575 13.339) rotate(-81.268)" fill="#fd9927"/>
            <path id="Trazado_675136" data-name="Trazado 675136" d="M401.153,1355.688l14.575,9.065,2.048-13.339Z" transform="translate(-401.153 -1351.415)" fill="#ff9490"/>
            <path id="Trazado_675137" data-name="Trazado 675137" d="M450.392,1362.094l-.648,4.217a4.751,4.751,0,0,1-5.418,3.975l-3.1-.477,2.048-13.338,3.375.52A4.477,4.477,0,0,1,450.392,1362.094Z" transform="translate(-359.553 -1346.166)" fill="#ff9490"/>
          </g>
          <g id="Grupo_908431" data-name="Grupo 908431" transform="translate(132.49 243.137)">
            <path id="Trazado_675138" data-name="Trazado 675138" d="M562.5,1558.358s8.964,8.179,7.215,13.992-9.838,9.686-10.931,16.791-5.464,10.978-9.4,10.978H530.619s-2.9-5,4.1-6.506,9.633-9.855,9.194-17.6a136.728,136.728,0,0,1,.656-18.081l14.867-3.445Z" transform="translate(-399.848 -1299.116)" fill="#04243a"/>
            <path id="Trazado_675139" data-name="Trazado 675139" d="M518.841,1570.434s1.61,18.615-2.326,20.553l-50.36-.1s0-5.811,8.087-7.1,22.3-6.027,24.705-16.575S518.841,1570.434,518.841,1570.434Z" transform="translate(-466.156 -1290.036)" fill="#04243a"/>
            <path id="Trazado_675140" data-name="Trazado 675140" d="M471.145,1440.049s2.656,32.632,5.778,71.857c4.243,53.283,9.345,118.731,9.85,131.13.872,21.531,4.374,55.971,4.374,55.971s8.3,8.181,24.923,4.733c0,0,14.808-49.164,19.039-101.18.065-.852.13-1.712.2-2.57,3.934-52.955,10.052-164.461,10.052-164.461Z" transform="translate(-460.976 -1422.615)" fill="#06355c"/>
            <path id="Trazado_675141" data-name="Trazado 675141" d="M471.145,1440.049s2.656,32.632,5.778,71.857l58.187,90.653c.065-.852.13-1.712.2-2.57,3.934-52.955,10.052-164.461,10.052-164.461Z" transform="translate(-460.976 -1422.615)" fill="#04243a"/>
            <path id="Trazado_675142" data-name="Trazado 675142" d="M477.1,1450.5s47.875,118.179,79.355,173.714,41.318,71.037,41.318,71.037,18.036-7.1,19.675-11.948c0,0-12.038-107.216-33.119-133.354-11.913-14.769-25.908-59.087-26.564-74.586s-4.262-46.173-4.262-46.173Z" transform="translate(-454.797 -1429.193)" fill="#06355c"/>
          </g>
          <path id="Trazado_675143" data-name="Trazado 675143" d="M534.015,1370.289s-32.393,15.629-51.069,9.831a44.087,44.087,0,0,1,12.641-10.114c-.646-3.748-1.148-7-1.437-9.759a90.337,90.337,0,0,1-.789-9.973l12.5-9.83,11.85-9.406C516.776,1357.487,534.015,1370.289,534.015,1370.289Z" transform="translate(-316.235 -1287.961)" fill="#ff9490"/>
          <path id="Trazado_675144" data-name="Trazado 675144" d="M564.71,1520.9c.071,1.979-4.168,4.242-6.035,5.092-13.862,6.082-26.79,10.325-41.443,11.74-17.311,1.769-37.782-2.122-44.82-1.981a2.93,2.93,0,0,1-1.94-.776c-.5-.355-.862-21.218-.5-47.455,0-1.062,0-2.124.071-3.184v-.353c.143-10.256.5-21.006,1-31.755,1.007-23.623,2.872-46.4,6.033-58.985,3.807-14.852,12.427-24.683,20.256-31.826l6.465-5.658a31.063,31.063,0,0,0,20.111-2.4c7.47-3.608,15.515-7.5,16.807-6.508,9.769,7.142,16.377,23.2,19.9,43.71a227.582,227.582,0,0,1,2.945,38.9c0,5.091-.145,10.326-.432,15.49-1.724,28,0,52.335,1,66.409C564.421,1515.455,564.637,1518.636,564.71,1520.9Z" transform="translate(-329.858 -1271.71)" fill="#fd9927"/>
          <path id="Trazado_675145" data-name="Trazado 675145" d="M544.862,1497.269c-113.434-.226-20.92-123.089-20.92-123.089l18.376-5.968a357.32,357.32,0,0,1,2.13,41.557c0,5.442-.1,11.033-.312,16.548C542.891,1456.24,544.136,1482.233,544.862,1497.269Z" transform="translate(-310.586 -1249.366)" fill="#fd801a"/>
          <path id="Trazado_675146" data-name="Trazado 675146" d="M512.62,1336.359s-8.187,14.921-23.776,19.1a90.336,90.336,0,0,1-.789-9.973l12.5-9.83Z" transform="translate(-310.929 -1283.17)" fill="#ff8484"/>
          <path id="Trazado_675147" data-name="Trazado 675147" d="M488.331,1365.9s30.9,5.057,33.8-13.941,8.844-31.141-10.766-35.171-24.556,2.65-27.092,8.758S480.368,1364.1,488.331,1365.9Z" transform="translate(-316.904 -1304.024)" fill="#ff9490"/>
          <path id="Trazado_675148" data-name="Trazado 675148" d="M538.455,1320.4c.279-.322.927-.581,2.366-.66a5.848,5.848,0,0,0-2.688-.758c-.3-2-1.368-5.546-4.814-6.406a4.314,4.314,0,0,1,2.093,3.116c-3.991-4.1-12.543-7.085-36.227-5.214-31.213,2.462-20.924,22.447-16.885,24.829s14.212-4.15,21.74-3.553,8.962,11.477,11.516,12.969,1.549-1.146,5.006-2.709,3.783,4.164,2.786,7.888,3.748,8.634,3.748,8.634l4.8-5.167c4.8-5.169,9.321-27.055,7.14-31.721C538.84,1321.234,538.65,1320.816,538.455,1320.4Z" transform="translate(-321.991 -1309.903)" fill="#1f3765"/>
          <path id="Trazado_675149" data-name="Trazado 675149" d="M512.14,1346.69s19.55,9.26,28.926,23.492c14.542,22.08,31.4,102.546,31.708,110s-12.3,60.058-12.3,60.058-12.794-.844-16.094-7.3c0,0,2.556-54.051.937-57.524s-53.336-72.5-47.521-87.235S512.14,1346.69,512.14,1346.69Z" transform="translate(-301.292 -1271.71)" fill="#fd9927"/>
          <path id="Trazado_675150" data-name="Trazado 675150" d="M435.793,1368.5s1.064-4.2-1.851-6.089-5.593-7.021-6.822-6.324c-2.544,1.439,1.392,5.919.673,11.508C427.54,1369.552,432.1,1374.68,435.793,1368.5Z" transform="translate(-375.093 -1262.021)" fill="#ff9490"/>
        </g>
      </g>
    </g>
  </g>
</svg>
