<svg xmlns="http://www.w3.org/2000/svg" xmlns:xlink="http://www.w3.org/1999/xlink" width="356.847" height="387.986" viewBox="0 0 356.847 387.986">
  <defs>
    <linearGradient id="linear-gradient" x1="-3.764" y1="-1.553" x2="-7.522" y2="-5.32" gradientUnits="objectBoundingBox">
      <stop offset="0" stop-color="#fff"/>
      <stop offset="1" stop-color="#efeff4"/>
    </linearGradient>
  </defs>
  <g id="Grupo_908507" data-name="Grupo 908507" transform="translate(-474.703 -1230.714)">
    <path id="Trazado_675191" data-name="Trazado 675191" d="M788.505,1533.607a135.406,135.406,0,0,1-23.772,19.32c-61.563,41.159-131.938,29.3-153.7,25.241-35.1-6.541-64.736-11.156-90.2-34.187-57.852-52.334-55.038-161.5-10.832-229.131,5.241-8.019,49.379-73.53,119.907-82.76,1.725-.226,3.012-.354,4.139-.475,10.91-1.156,78.519-7.261,133.648,38.984a164.623,164.623,0,0,1,32.367,36.772C843.131,1373.958,843.267,1477.087,788.505,1533.607Z" transform="translate(0.453)" fill="#efeff4"/>
    <g id="Grupo_908482" data-name="Grupo 908482" transform="translate(474.703 1266.006)" opacity="0.75">
      <path id="Trazado_675192" data-name="Trazado 675192" d="M571.359,1537.092s-43.531-30.313-43.353-94.008c.174-61.909,14.331-146.219-49.09-182.324a2.816,2.816,0,0,0-4.132,3.1c3.351,14.14,10.692,50.819,7.038,88.105C477.157,1399.558,489.808,1516.269,571.359,1537.092Z" transform="translate(-474.703 -1260.384)" fill="#c6c9d3"/>
      <path id="Trazado_675193" data-name="Trazado 675193" d="M488.145,1280.813l.234.219.186.188c.125.125.241.247.352.369.232.243.448.489.666.734.432.494.851.991,1.254,1.5s.795,1.021,1.188,1.534c.374.525.764,1.041,1.123,1.575a72.8,72.8,0,0,1,4.024,6.572,81.929,81.929,0,0,1,5.994,14.135,97.561,97.561,0,0,1,3.471,14.927,104.238,104.238,0,0,1,1.126,15.255,126.259,126.259,0,0,1-.912,15.236l-.5,3.781-.626,3.759c-.2,1.266-.427,2.468-.641,3.705s-.433,2.459-.609,3.695a226.072,226.072,0,0,0-2.594,29.854l-.059,3.75.02,3.752c0,1.251.034,2.5.073,3.751s.051,2.5.124,3.751c.2,5,.608,9.99,1.122,14.968.534,4.978,1.241,9.936,2.088,14.871q1.32,7.394,3.152,14.687,1.873,7.276,4.319,14.391,2.468,7.1,5.6,13.949A121.453,121.453,0,0,0,525.374,1499a107.907,107.907,0,0,0,8.717,12.277,108.05,108.05,0,0,1-9.038-12.075,121.925,121.925,0,0,1-7.422-13.158,149.49,149.49,0,0,1-5.956-13.9q-2.6-7.107-4.633-14.406-1.982-7.3-3.465-14.735c-.949-4.958-1.765-9.942-2.394-14.953-.592-5.014-1.075-10.044-1.355-15.087-.09-1.26-.118-2.523-.181-3.784s-.112-2.524-.127-3.787l-.076-3.789,0-3.79a228.424,228.424,0,0,1,2.181-30.24c.159-1.255.357-2.505.561-3.754l.6-3.734.583-3.684.459-3.7a123.173,123.173,0,0,0,.772-14.859,100.565,100.565,0,0,0-4.52-29.219c-.766-2.346-1.589-4.674-2.557-6.941-.952-2.273-1.978-4.515-3.141-6.685a69.355,69.355,0,0,0-3.784-6.321c-.687-1.015-1.4-2.009-2.148-2.971-.371-.483-.754-.954-1.142-1.413-.2-.229-.39-.457-.589-.673-.1-.112-.2-.219-.294-.317l-.143-.15-.106-.106-.1-.1a1.487,1.487,0,0,1,2.066-2.138Z" transform="translate(-472.63 -1256.589)" fill="#fff" opacity="0.47"/>
    </g>
    <g id="Grupo_908484" data-name="Grupo 908484" transform="translate(512.565 1232.636)">
      <g id="Grupo_908483" data-name="Grupo 908483" opacity="0.74">
        <path id="Trazado_675194" data-name="Trazado 675194" d="M530.2,1233.864a1.539,1.539,0,0,1,2.791-.89c8.828,12.309,28.851,47.906,11.869,99.867-21.307,65.193-12.2,92.309,2.191,110.591,0,0-22.408-11.681-32.5-39.363C489.778,1336.1,530.342,1260.386,530.2,1233.864Z" transform="translate(-506.534 -1232.33)" fill="#d7d9e0"/>
        <path id="Trazado_675195" data-name="Trazado 675195" d="M533.083,1252.484a60.822,60.822,0,0,1,1.593,9.5l.127,1.2.087,1.2.175,2.4q.109,2.4.186,4.8a161.281,161.281,0,0,1-.93,19.19c-.592,6.385-1.739,12.694-2.912,18.991l-1.023,4.693-.513,2.347-.256,1.174-.3,1.163-2.359,9.29a193.584,193.584,0,0,0-5.977,37.367c-.429,6.3-.58,12.632-.425,18.951.021,1.58.1,3.158.143,4.736.07,1.578.163,3.155.258,4.731.121,1.574.228,3.15.388,4.716.137,1.564.318,3.147.521,4.664l.006.043a1.489,1.489,0,0,1-2.946.429c-.508-3.241-.829-6.41-1.091-9.622-.114-1.6-.227-3.2-.316-4.807-.065-1.6-.159-3.207-.2-4.812-.184-6.417-.026-12.842.4-19.246.169-3.206.517-6.4.848-9.592.182-1.6.427-3.182.639-4.773l.328-2.386c.107-.795.269-1.583.4-2.374l.834-4.745c.294-1.578.669-3.142,1-4.713l.512-2.354c.089-.391.163-.786.264-1.175l.306-1.164,1.226-4.66c.4-1.565.829-3.078,1.249-4.608l1.261-4.582.315-1.147.276-1.155.552-2.31,1.1-4.622.948-4.654c.308-1.554.654-3.1.89-4.666l.783-4.685c.141-.779.244-1.564.351-2.348l.321-2.353a159.335,159.335,0,0,0,1.5-18.931q.021-2.373.012-4.75l-.076-2.373-.038-1.187-.077-1.184c-.056-.789-.093-1.581-.167-2.368l-.235-2.361c-.2-1.562-.39-3.152-.73-4.665l0-.02a.4.4,0,0,1,.775-.188Z" transform="translate(-504.504 -1228.568)" fill="#fff" opacity="0.47"/>
      </g>
    </g>
    <g id="Grupo_908487" data-name="Grupo 908487" transform="translate(485.484 1258.69)">
      <ellipse id="Elipse_6695" data-name="Elipse 6695" cx="150.225" cy="162.153" rx="150.225" ry="162.153" transform="translate(0 300.16) rotate(-87.486)" fill="#06355c"/>
      <g id="Grupo_908485" data-name="Grupo 908485" transform="translate(32.57 26.152)" opacity="0.17">
        <ellipse id="Elipse_6696" data-name="Elipse 6696" cx="127.24" cy="120.201" rx="127.24" ry="120.201" fill="#c6c9d3"/>
      </g>
      <g id="Grupo_908486" data-name="Grupo 908486" transform="translate(21.102 10.866)" opacity="0.68">
        <path id="Trazado_675196" data-name="Trazado 675196" d="M673.543,1410.29c-.039,26.5-1.856,53.045-6.525,79.165-1.181,6.526-2.552,13.019-4.185,19.451a187.591,187.591,0,0,1-5.844,19.034,90.223,90.223,0,0,1-8.719,17.939,35.806,35.806,0,0,1-6.543,7.633,18.666,18.666,0,0,1-4.282,2.76,12.821,12.821,0,0,1-5,1.179,12.63,12.63,0,0,1-5.055-.93,17.559,17.559,0,0,1-4.383-2.609,33.99,33.99,0,0,1-6.684-7.513,87.275,87.275,0,0,1-8.845-17.878,182.794,182.794,0,0,1-5.906-19.014c-1.65-6.427-3.033-12.918-4.225-19.441-2.379-13.047-4-26.221-5.1-39.43s-1.632-26.466-1.7-39.722c-.032-6.628.149-13.253.384-19.875s.613-13.24,1.1-19.848c.98-13.217,2.444-26.4,4.621-39.48,1.092-6.537,2.366-13.046,3.9-19.5a187.606,187.606,0,0,1,5.533-19.109c1.114-3.127,2.329-6.22,3.717-9.241a67.34,67.34,0,0,1,4.757-8.768,32.675,32.675,0,0,1,6.539-7.56,16.687,16.687,0,0,1,4.324-2.591,12.191,12.191,0,0,1,4.971-.883,13.169,13.169,0,0,1,4.913,1.15,19.227,19.227,0,0,1,4.269,2.664,36.475,36.475,0,0,1,6.68,7.43,89.492,89.492,0,0,1,9.16,17.669,180.809,180.809,0,0,1,6.279,18.878c1.769,6.392,3.266,12.856,4.562,19.358C671.384,1357.238,673.467,1383.791,673.543,1410.29Zm-1.961,0q.037-19.8-1.574-39.564a380.969,380.969,0,0,0-5.162-39.246c-1.219-6.485-2.638-12.933-4.328-19.311a180.12,180.12,0,0,0-6.034-18.828,88.6,88.6,0,0,0-8.875-17.589,35.692,35.692,0,0,0-6.462-7.352,18.541,18.541,0,0,0-4.094-2.62,12.254,12.254,0,0,0-4.676-1.14,11.475,11.475,0,0,0-4.718.887,16.035,16.035,0,0,0-4.126,2.536,31.973,31.973,0,0,0-6.305,7.461,66.774,66.774,0,0,0-4.6,8.708c-1.341,3.006-2.513,6.087-3.584,9.2a186.632,186.632,0,0,0-5.292,19.053c-1.453,6.436-2.65,12.931-3.667,19.453-2.025,13.046-3.34,26.2-4.173,39.377s-1.131,26.389-1.107,39.593q-.052,19.8,1.387,39.572c.99,13.163,2.5,26.294,4.771,39.295,1.136,6.5,2.463,12.965,4.052,19.365a181.832,181.832,0,0,0,5.714,18.912,86.115,86.115,0,0,0,8.575,17.684,32.91,32.91,0,0,0,6.4,7.311,16.453,16.453,0,0,0,4.092,2.483,11.313,11.313,0,0,0,4.627.88,11.772,11.772,0,0,0,4.581-1.122,17.558,17.558,0,0,0,4.009-2.631,34.736,34.736,0,0,0,6.265-7.437,88.907,88.907,0,0,0,8.447-17.751,185.6,185.6,0,0,0,5.648-18.933c1.571-6.4,2.883-12.873,4.007-19.373,2.252-13,3.748-26.137,4.743-39.3S671.587,1423.495,671.581,1410.29Z" transform="translate(-484.635 -1263.24)" fill="#fff" style="mix-blend-mode: soft-light;isolation: isolate"/>
        <path id="Trazado_675197" data-name="Trazado 675197" d="M752.393,1410.42a193.146,193.146,0,0,1-6.852,50.587,162.871,162.871,0,0,1-21.165,46.388,133.5,133.5,0,0,1-16.165,19.8,113.372,113.372,0,0,1-19.9,16.019,95.944,95.944,0,0,1-23.218,10.616,86.835,86.835,0,0,1-50.484.023,95.965,95.965,0,0,1-23.237-10.6,113.476,113.476,0,0,1-19.925-16.007,133.667,133.667,0,0,1-16.2-19.791,163.107,163.107,0,0,1-21.219-46.406,183.68,183.68,0,0,1-5.139-25.08,188.584,188.584,0,0,1,.017-51.085,183.6,183.6,0,0,1,5.154-25.074,163.071,163.071,0,0,1,21.249-46.373,133.6,133.6,0,0,1,16.2-19.769,113.105,113.105,0,0,1,19.919-15.979,96.379,96.379,0,0,1,23.218-10.559,86.229,86.229,0,0,1,50.406.02,96.328,96.328,0,0,1,23.2,10.578,113.05,113.05,0,0,1,19.893,15.99,133.623,133.623,0,0,1,16.166,19.774,162.827,162.827,0,0,1,21.193,46.356A193.173,193.173,0,0,1,752.393,1410.42Zm-2.248,0a191,191,0,0,0-6.577-50.038,162.141,162.141,0,0,0-20.491-46.07,132.137,132.137,0,0,0-15.8-19.737,110.368,110.368,0,0,0-19.543-16.025,94.468,94.468,0,0,0-22.922-10.6,84.088,84.088,0,0,0-49.9.021,94.307,94.307,0,0,0-22.9,10.614,110.323,110.323,0,0,0-19.517,16.037,132.2,132.2,0,0,0-15.768,19.741,161.927,161.927,0,0,0-20.436,46.054,185.056,185.056,0,0,0-4.914,24.785,192.744,192.744,0,0,0,.015,50.428,184.907,184.907,0,0,0,4.932,24.778,161.834,161.834,0,0,0,20.464,46.021,132,132,0,0,0,15.77,19.719,109.945,109.945,0,0,0,19.51,16.007,94.725,94.725,0,0,0,22.886,10.576,83.511,83.511,0,0,0,49.824.023,94.751,94.751,0,0,0,22.9-10.559,110.01,110.01,0,0,0,19.539-15.995,132.125,132.125,0,0,0,15.8-19.716,162.083,162.083,0,0,0,20.52-46.038A190.985,190.985,0,0,0,750.144,1410.42Z" transform="translate(-496.645 -1263.369)" fill="#fff" style="mix-blend-mode: soft-light;isolation: isolate"/>
        <path id="Trazado_675198" data-name="Trazado 675198" d="M511.527,1338.125l33.8-.272,33.8-.155,67.592-.125,67.593.137,33.8.169,33.8.3a.1.1,0,0,1,.1.1.1.1,0,0,1-.1.1l-33.8.3-33.8.169-67.593.138-67.592-.125-33.8-.156-33.8-.272a.148.148,0,0,1,0-.3Z" transform="translate(-499.636 -1249.308)" fill="#fff" style="mix-blend-mode: soft-light;isolation: isolate"/>
        <path id="Trazado_675199" data-name="Trazado 675199" d="M544.488,1290.537c8-.126,16-.181,23.994-.272l23.994-.155c8-.067,16-.059,23.994-.08l23.993-.045,47.989.137,23.994.169c8,.1,16,.159,23.994.3a.1.1,0,0,1,0,.2c-8,.136-16,.2-23.994.3l-23.994.169-47.989.137-23.993-.045c-8-.02-16-.013-23.994-.078l-23.994-.156c-8-.092-16-.145-23.994-.272a.148.148,0,0,1,0-.3Z" transform="translate(-493.39 -1258.326)" fill="#fff" style="mix-blend-mode: soft-light;isolation: isolate"/>
        <path id="Trazado_675200" data-name="Trazado 675200" d="M501.653,1385.713l36.733-.271,36.732-.156,73.464-.125,73.465.137,36.731.17,36.733.294a.1.1,0,0,1,0,.2l-36.733.295-36.731.169-73.465.137-73.464-.124-36.732-.156-36.733-.272a.148.148,0,0,1,0-.3Z" transform="translate(-501.507 -1240.29)" fill="#fff" style="mix-blend-mode: soft-light;isolation: isolate"/>
        <path id="Trazado_675201" data-name="Trazado 675201" d="M511.527,1433.3l33.8-.272,33.8-.155,67.592-.125,67.593.137,33.8.169,33.8.3a.1.1,0,0,1,.1.1.1.1,0,0,1-.1.1l-33.8.3-33.8.169-67.593.137-67.592-.124-33.8-.156-33.8-.273a.148.148,0,0,1,0-.3Z" transform="translate(-499.636 -1231.273)" fill="#fff" style="mix-blend-mode: soft-light;isolation: isolate"/>
        <path id="Trazado_675202" data-name="Trazado 675202" d="M740.566,1481.526H548.614a.518.518,0,1,1,0-1.036H740.566a.518.518,0,1,1,0,1.036Z" transform="translate(-492.679 -1222.227)" fill="#fff" style="mix-blend-mode: soft-light;isolation: isolate"/>
      </g>
    </g>
    <g id="Grupo_908501" data-name="Grupo 908501" transform="translate(579.419 1231.916)">
      <path id="Trazado_675203" data-name="Trazado 675203" d="M562.737,1288.252a22,22,0,0,1,22-22H771.8a19.38,19.38,0,0,1,19.354,18.394l13.808,271.206a14.29,14.29,0,0,1-14.012,15.015l-214.4,3.9a13.565,13.565,0,0,1-13.811-13.562Z" transform="translate(-562.737 -1225.181)" fill="#333435"/>
      <path id="Trazado_675204" data-name="Trazado 675204" d="M606.831,1529.993h0l-23.992-.311a14.794,14.794,0,0,1-14.548-14.736v-36.22a.512.512,0,1,1,1.024,0v36.22a13.767,13.767,0,0,0,13.536,13.712l23.99.311a.512.512,0,0,1-.006,1.024Z" transform="translate(-561.685 -1185.017)" fill="#5c5e61"/>
      <path id="Trazado_675205" data-name="Trazado 675205" d="M568.8,1470.74a.512.512,0,0,1-.513-.511v-5.867a.512.512,0,0,1,1.024,0v5.867A.511.511,0,0,1,568.8,1470.74Z" transform="translate(-561.685 -1187.739)" fill="#5c5e61"/>
      <g id="Grupo_908499" data-name="Grupo 908499" transform="translate(15.324 38.817)">
        <path id="Trazado_675206" data-name="Trazado 675206" d="M575.62,1270.79a6.39,6.39,0,0,1,7.248-6.373c25.546,3.465,113.388,14.179,186.015,8.6a5.907,5.907,0,0,1,6.363,5.571l14.479,272.415a6.8,6.8,0,0,1-6.388,7.15c-30.546,1.808-156.342,8.8-201.212,4.1a5.387,5.387,0,0,1-4.82-5.331Z" transform="translate(-575.62 -1264.357)" fill="#06355c"/>
        <path id="Trazado_675207" data-name="Trazado 675207" d="M578.15,1276.49a6.149,6.149,0,0,1,6.974-6.133c24.583,3.334,109.118,13.645,179.011,8.279a5.685,5.685,0,0,1,6.122,5.362l13.934,262.156a6.544,6.544,0,0,1-6.147,6.881c-29.4,1.74-150.455,8.464-193.636,3.942a5.185,5.185,0,0,1-4.638-5.13Z" transform="translate(-575.14 -1263.231)" fill="#c6c9d3"/>
        <path id="Trazado_675208" data-name="Trazado 675208" d="M593.757,1294.349l2.764,56.2a3.686,3.686,0,0,0,3.671,3.408c11.021.294,45.36,1.085,64.75.13a4.106,4.106,0,0,0,4-3.856c.369-10.541,1.179-41.219-1.364-54.043a4.694,4.694,0,0,0-4.526-3.664l-65.138-2.152A3.912,3.912,0,0,0,593.757,1294.349Z" transform="translate(-572.184 -1259.427)" fill="#fff" opacity="0.78"/>
        <g id="Grupo_908488" data-name="Grupo 908488" transform="translate(108.631 51.742)" opacity="0.6">
          <path id="Trazado_675209" data-name="Trazado 675209" d="M739.792,1314a1.9,1.9,0,0,0,1.9-1.947l-.018-.724a2.065,2.065,0,0,0-2-1.989l-71.266-1.487a1.335,1.335,0,0,0-1.387,1.825l.74,2.456a2.787,2.787,0,0,0,2.509,1.866Z" transform="translate(-666.946 -1307.857)" fill="#fff"/>
        </g>
        <g id="Grupo_908489" data-name="Grupo 908489" transform="translate(118.637 33.86)" opacity="0.86">
          <path id="Trazado_675210" data-name="Trazado 675210" d="M723.838,1299.479a1.918,1.918,0,0,0,1.917-1.948l-.017-1.12a2.073,2.073,0,0,0-1.978-2.014l-46.781-1.573a1.5,1.5,0,0,0-1.589,1.85l.54,2.89a2.443,2.443,0,0,0,2.305,1.915Z" transform="translate(-675.358 -1292.823)" fill="#fff"/>
        </g>
        <g id="Grupo_908490" data-name="Grupo 908490" transform="translate(108.631 64.578)" opacity="0.6">
          <path id="Trazado_675211" data-name="Trazado 675211" d="M668.411,1318.648a1.336,1.336,0,0,0-1.387,1.825l.74,2.457a2.788,2.788,0,0,0,2.509,1.865h69.519a1.9,1.9,0,0,0,1.9-1.947l-.018-.724a2.065,2.065,0,0,0-2-1.989Z" transform="translate(-666.946 -1318.647)" fill="#fff"/>
        </g>
        <g id="Grupo_908491" data-name="Grupo 908491" transform="translate(108.631 77.6)" opacity="0.6">
          <path id="Trazado_675212" data-name="Trazado 675212" d="M668.411,1329.6a1.335,1.335,0,0,0-1.387,1.825l.74,2.458a2.788,2.788,0,0,0,2.509,1.865h69.519a1.9,1.9,0,0,0,1.9-1.947l-.018-.724a2.065,2.065,0,0,0-2-1.989Z" transform="translate(-666.946 -1329.596)" fill="#fff"/>
        </g>
        <g id="Grupo_908498" data-name="Grupo 908498" transform="translate(27.628 108.369)">
          <path id="Trazado_675213" data-name="Trazado 675213" d="M618.56,1425.006h-.037l-13.339-.127a3.587,3.587,0,0,1-3.66-3.05l-1.172-11.193a2.43,2.43,0,0,1,.573-1.828,2.926,2.926,0,0,1,2.041-1.008h0c1.124-.077,2.707-.212,4.382-.354,3.528-.3,7.92-.675,10.39-.705a3.728,3.728,0,0,1,3.735,2.613c.7,2.569.634,7.432.5,12.613A3.3,3.3,0,0,1,618.56,1425.006Zm-15.523-16.184a1.894,1.894,0,0,0-1.326.645,1.414,1.414,0,0,0-.34,1.062l1.173,11.193a2.567,2.567,0,0,0,2.65,2.133l13.34.127h.026a2.272,2.272,0,0,0,2.392-2.041c.131-5.1.193-9.884-.466-12.321a2.753,2.753,0,0,0-2.733-1.856c-2.434.031-6.8.4-10.315.7-1.681.143-3.268.278-4.4.356Z" transform="translate(-598.564 -1345.746)" fill="#fff"/>
          <path id="Trazado_675214" data-name="Trazado 675214" d="M604.088,1409.6c2.8-.192,8.893-.81,11.782-.846a2.581,2.581,0,0,1,2.584,1.785c.558,2.061.484,6.171.388,9.963a2.22,2.22,0,0,1-2.346,2.031l-10.66-.1a2.464,2.464,0,0,1-2.522-2.071l-.937-8.944A1.732,1.732,0,0,1,604.088,1409.6Z" transform="translate(-598.18 -1345.365)" fill="#fff" opacity="0.6"/>
          <g id="Grupo_908492" data-name="Grupo 908492" transform="translate(31.601 67.672)" opacity="0.6">
            <path id="Trazado_675215" data-name="Trazado 675215" d="M625.525,1416.51a3.312,3.312,0,0,0,3.231,2.468l123.425-1.053a2.5,2.5,0,0,0-.011-5.009l-123.427-.563A3.312,3.312,0,0,0,625.525,1416.51Z" transform="translate(-625.414 -1412.354)" fill="#fff"/>
          </g>
          <path id="Trazado_675216" data-name="Trazado 675216" d="M604.459,1412.454h0a2.046,2.046,0,0,1,2.824.768l2.631,4.716a.657.657,0,0,0,1.174-.051l6.527-14.528a.729.729,0,0,1,1.393.314,28.688,28.688,0,0,1-8.347,19.963s-3.913-1.521-7.064-8.441A2.148,2.148,0,0,1,604.459,1412.454Z" transform="translate(-597.984 -1346.468)" fill="#feca2e"/>
          <path id="Trazado_675217" data-name="Trazado 675217" d="M618.153,1401.409h-.036l-13.34-.127a3.587,3.587,0,0,1-3.66-3.05l-1.172-11.193a2.431,2.431,0,0,1,.575-1.829,2.925,2.925,0,0,1,2.041-1.006h0c1.123-.078,2.706-.212,4.382-.355,3.528-.3,7.918-.674,10.389-.705a3.728,3.728,0,0,1,3.735,2.613c.7,2.569.634,7.432.5,12.613A3.3,3.3,0,0,1,618.153,1401.409Zm-15.523-16.184a1.894,1.894,0,0,0-1.326.645,1.412,1.412,0,0,0-.34,1.062l1.173,11.193a2.566,2.566,0,0,0,2.65,2.132l13.34.128h.026a2.272,2.272,0,0,0,2.392-2.041c.131-5.1.193-9.883-.466-12.321a2.753,2.753,0,0,0-2.733-1.856c-2.434.031-6.8.4-10.315.7-1.681.143-3.267.278-4.4.356Z" transform="translate(-598.641 -1350.217)" fill="#fff"/>
          <path id="Trazado_675218" data-name="Trazado 675218" d="M603.681,1386c2.8-.192,8.893-.81,11.782-.846a2.584,2.584,0,0,1,2.585,1.786c.557,2.061.483,6.171.387,9.963a2.221,2.221,0,0,1-2.346,2.03l-10.66-.1a2.463,2.463,0,0,1-2.522-2.07l-.937-8.945A1.733,1.733,0,0,1,603.681,1386Z" transform="translate(-598.257 -1349.836)" fill="#fff" opacity="0.6"/>
          <g id="Grupo_908493" data-name="Grupo 908493" transform="translate(31.117 39.603)" opacity="0.6">
            <path id="Trazado_675219" data-name="Trazado 675219" d="M625.118,1392.913a3.313,3.313,0,0,0,3.232,2.468l123.424-1.053a2.5,2.5,0,0,0-.011-5.009l-123.426-.563A3.312,3.312,0,0,0,625.118,1392.913Z" transform="translate(-625.006 -1388.757)" fill="#fff"/>
          </g>
          <path id="Trazado_675220" data-name="Trazado 675220" d="M604.052,1388.858h0a2.048,2.048,0,0,1,2.825.768l2.631,4.716a.656.656,0,0,0,1.173-.051l6.527-14.528a.728.728,0,0,1,1.393.314,28.689,28.689,0,0,1-8.347,19.963s-3.914-1.521-7.064-8.442A2.147,2.147,0,0,1,604.052,1388.858Z" transform="translate(-598.061 -1350.94)" fill="#feca2e"/>
          <path id="Trazado_675221" data-name="Trazado 675221" d="M617.068,1377.541h-.036l-13.34-.129a3.584,3.584,0,0,1-3.659-3.05l-1.173-11.192a2.429,2.429,0,0,1,.575-1.83,2.931,2.931,0,0,1,2.041-1.007h0c1.123-.076,2.706-.212,4.382-.353,3.528-.3,7.918-.675,10.389-.705a3.727,3.727,0,0,1,3.735,2.612c.7,2.569.634,7.433.5,12.615A3.3,3.3,0,0,1,617.068,1377.541Zm-15.523-16.184a1.9,1.9,0,0,0-1.326.643,1.416,1.416,0,0,0-.34,1.063l1.173,11.192a2.566,2.566,0,0,0,2.651,2.133l13.339.129h.027a2.272,2.272,0,0,0,2.391-2.041c.131-5.1.193-9.885-.466-12.321a2.751,2.751,0,0,0-2.734-1.856c-2.434.031-6.8.4-10.315.7-1.681.143-3.268.278-4.4.356Z" transform="translate(-598.847 -1354.74)" fill="#fff"/>
          <path id="Trazado_675222" data-name="Trazado 675222" d="M602.6,1362.131c2.8-.192,8.893-.81,11.782-.846a2.584,2.584,0,0,1,2.585,1.785c.557,2.061.483,6.17.387,9.963a2.218,2.218,0,0,1-2.346,2.029l-10.66-.1a2.463,2.463,0,0,1-2.522-2.071l-.937-8.944A1.732,1.732,0,0,1,602.6,1362.131Z" transform="translate(-598.462 -1354.359)" fill="#fff" opacity="0.6"/>
          <g id="Grupo_908494" data-name="Grupo 908494" transform="translate(29.826 11.211)" opacity="0.6">
            <path id="Trazado_675223" data-name="Trazado 675223" d="M624.033,1369.045a3.313,3.313,0,0,0,3.232,2.467l123.424-1.052a2.5,2.5,0,0,0-.009-5.009l-123.427-.564A3.313,3.313,0,0,0,624.033,1369.045Z" transform="translate(-623.921 -1364.888)" fill="#fff"/>
          </g>
          <path id="Trazado_675224" data-name="Trazado 675224" d="M602.967,1364.989h0a2.049,2.049,0,0,1,2.825.768l2.631,4.718a.658.658,0,0,0,1.174-.051l6.526-14.53a.729.729,0,0,1,1.393.315,28.681,28.681,0,0,1-8.347,19.962s-3.913-1.52-7.064-8.44A2.148,2.148,0,0,1,602.967,1364.989Z" transform="translate(-598.266 -1355.463)" fill="#feca2e"/>
          <path id="Trazado_675225" data-name="Trazado 675225" d="M618.56,1449.042h-.037l-13.339-.128a3.586,3.586,0,0,1-3.66-3.05l-1.172-11.192a2.433,2.433,0,0,1,.573-1.83,2.936,2.936,0,0,1,2.041-1.007h0c1.124-.076,2.707-.211,4.382-.353,3.528-.3,7.92-.675,10.39-.705h.054a3.72,3.72,0,0,1,3.681,2.613c.7,2.569.634,7.433.5,12.615A3.3,3.3,0,0,1,618.56,1449.042Zm-15.523-16.184a1.9,1.9,0,0,0-1.326.643,1.416,1.416,0,0,0-.34,1.063l1.173,11.192a2.565,2.565,0,0,0,2.65,2.133l13.34.129h.026a2.273,2.273,0,0,0,2.392-2.041c.131-5.1.193-9.885-.466-12.321a2.738,2.738,0,0,0-2.733-1.856c-2.434.031-6.8.4-10.315.7-1.681.143-3.268.278-4.4.356Z" transform="translate(-598.564 -1341.192)" fill="#fff"/>
          <path id="Trazado_675226" data-name="Trazado 675226" d="M604.088,1433.632c2.8-.191,8.893-.81,11.782-.846a2.581,2.581,0,0,1,2.584,1.785c.558,2.061.484,6.17.388,9.963a2.22,2.22,0,0,1-2.346,2.029l-10.66-.1a2.463,2.463,0,0,1-2.522-2.07l-.937-8.945A1.732,1.732,0,0,1,604.088,1433.632Z" transform="translate(-598.18 -1340.811)" fill="#fff" opacity="0.6"/>
          <g id="Grupo_908495" data-name="Grupo 908495" transform="translate(31.601 96.261)" opacity="0.6">
            <path id="Trazado_675227" data-name="Trazado 675227" d="M625.525,1440.546a3.314,3.314,0,0,0,3.231,2.468l123.425-1.053a2.5,2.5,0,0,0-.011-5.009l-123.427-.564A3.313,3.313,0,0,0,625.525,1440.546Z" transform="translate(-625.414 -1436.389)" fill="#fff"/>
          </g>
          <path id="Trazado_675228" data-name="Trazado 675228" d="M604.459,1436.49h0a2.046,2.046,0,0,1,2.824.769l2.631,4.716a.657.657,0,0,0,1.174-.051l6.527-14.528a.728.728,0,0,1,1.393.314,28.69,28.69,0,0,1-8.347,19.963s-3.913-1.521-7.064-8.442A2.147,2.147,0,0,1,604.459,1436.49Z" transform="translate(-597.984 -1341.914)" fill="#feca2e"/>
          <path id="Trazado_675229" data-name="Trazado 675229" d="M618.56,1473.078h-.037l-13.339-.128a3.585,3.585,0,0,1-3.66-3.05l-1.172-11.192a2.428,2.428,0,0,1,.575-1.83,2.926,2.926,0,0,1,2.04-1.007h0c1.124-.076,2.707-.212,4.382-.354,3.528-.3,7.92-.673,10.39-.705h.054a3.719,3.719,0,0,1,3.681,2.613c.7,2.569.634,7.433.5,12.613A3.3,3.3,0,0,1,618.56,1473.078Zm-15.523-16.185a1.9,1.9,0,0,0-1.326.645,1.416,1.416,0,0,0-.34,1.063l1.173,11.192a2.565,2.565,0,0,0,2.65,2.133l13.34.129h.026a2.273,2.273,0,0,0,2.392-2.041c.131-5.1.193-9.885-.466-12.321a2.732,2.732,0,0,0-2.733-1.856c-2.434.03-6.8.4-10.315.7-1.681.143-3.268.277-4.4.355Z" transform="translate(-598.564 -1336.637)" fill="#fff"/>
          <path id="Trazado_675230" data-name="Trazado 675230" d="M604.088,1457.668c2.8-.192,8.893-.81,11.782-.847a2.582,2.582,0,0,1,2.584,1.787c.558,2.061.484,6.17.388,9.962a2.221,2.221,0,0,1-2.346,2.03l-10.66-.1a2.464,2.464,0,0,1-2.522-2.071l-.937-8.944A1.731,1.731,0,0,1,604.088,1457.668Z" transform="translate(-598.18 -1336.256)" fill="#fff" opacity="0.6"/>
          <g id="Grupo_908496" data-name="Grupo 908496" transform="translate(31.601 124.852)" opacity="0.6">
            <path id="Trazado_675231" data-name="Trazado 675231" d="M625.525,1464.582a3.312,3.312,0,0,0,3.231,2.467L752.181,1466a2.5,2.5,0,0,0-.011-5.009l-123.427-.562A3.313,3.313,0,0,0,625.525,1464.582Z" transform="translate(-625.414 -1460.425)" fill="#fff"/>
          </g>
          <path id="Trazado_675232" data-name="Trazado 675232" d="M604.459,1460.526h0a2.047,2.047,0,0,1,2.824.768l2.631,4.716a.658.658,0,0,0,1.174-.05l6.527-14.53a.729.729,0,0,1,1.393.315,28.686,28.686,0,0,1-8.347,19.962s-3.913-1.52-7.064-8.441A2.148,2.148,0,0,1,604.459,1460.526Z" transform="translate(-597.984 -1337.359)" fill="#feca2e"/>
          <path id="Trazado_675233" data-name="Trazado 675233" d="M618.56,1497.113h-.037l-13.339-.127a3.586,3.586,0,0,1-3.66-3.05l-1.172-11.192a2.428,2.428,0,0,1,.575-1.83,2.922,2.922,0,0,1,2.04-1.007h0c1.124-.078,2.707-.212,4.382-.354,3.528-.3,7.92-.674,10.39-.705h.054a3.719,3.719,0,0,1,3.681,2.613c.7,2.569.634,7.432.5,12.614A3.3,3.3,0,0,1,618.56,1497.113Zm-15.523-16.184a1.892,1.892,0,0,0-1.326.645,1.414,1.414,0,0,0-.34,1.063l1.173,11.192a2.565,2.565,0,0,0,2.65,2.133l13.34.127h.026a2.272,2.272,0,0,0,2.392-2.041c.131-5.1.193-9.883-.466-12.321a2.731,2.731,0,0,0-2.733-1.855c-2.434.031-6.8.4-10.315.7-1.681.143-3.268.279-4.4.356Z" transform="translate(-598.564 -1332.082)" fill="#fff"/>
          <path id="Trazado_675234" data-name="Trazado 675234" d="M604.088,1481.7c2.8-.192,8.893-.81,11.782-.846a2.581,2.581,0,0,1,2.584,1.785c.558,2.061.484,6.171.388,9.963a2.221,2.221,0,0,1-2.346,2.031l-10.66-.1a2.464,2.464,0,0,1-2.522-2.071l-.937-8.944A1.733,1.733,0,0,1,604.088,1481.7Z" transform="translate(-598.18 -1331.702)" fill="#fff" opacity="0.6"/>
          <g id="Grupo_908497" data-name="Grupo 908497" transform="translate(31.601 153.443)" opacity="0.6">
            <path id="Trazado_675235" data-name="Trazado 675235" d="M625.525,1488.618h0a3.312,3.312,0,0,0,3.231,2.467l123.425-1.053a2.5,2.5,0,0,0-.011-5.009l-123.427-.562A3.312,3.312,0,0,0,625.525,1488.618Z" transform="translate(-625.414 -1484.461)" fill="#fff"/>
          </g>
          <path id="Trazado_675236" data-name="Trazado 675236" d="M604.459,1484.562h0a2.047,2.047,0,0,1,2.824.768l2.631,4.717a.658.658,0,0,0,1.174-.051l6.527-14.529a.729.729,0,0,1,1.393.314,28.688,28.688,0,0,1-8.347,19.963s-3.913-1.521-7.064-8.441A2.148,2.148,0,0,1,604.459,1484.562Z" transform="translate(-597.984 -1332.805)" fill="#feca2e"/>
        </g>
      </g>
      <path id="Trazado_675237" data-name="Trazado 675237" d="M673.224,1235.822c-6.756-4.7-12.632-4.608-16.768-3.388a8.25,8.25,0,0,0-5.859,8.673l1.784,19.468,21.224,1.884S686.476,1245.04,673.224,1235.822Zm-9.334,15.706a5.293,5.293,0,1,1,5.292-5.292A5.292,5.292,0,0,1,663.89,1251.528Z" transform="translate(-546.095 -1231.724)" fill="#ca7a1f"/>
      <g id="Grupo_908500" data-name="Grupo 908500" transform="translate(107.091 2.851)">
        <path id="Trazado_675238" data-name="Trazado 675238" d="M654.082,1251.932a.512.512,0,0,1-.509-.466l-.284-3.1a.512.512,0,0,1,1.021-.094l.283,3.1a.511.511,0,0,1-.463.557Zm-.557-6.076a.512.512,0,0,1-.509-.466l-.215-2.354a7.872,7.872,0,0,1,5.582-8.261,15.856,15.856,0,0,1,7.758-.319.512.512,0,1,1-.206,1,14.869,14.869,0,0,0-7.262.3,6.849,6.849,0,0,0-4.853,7.187l.215,2.354a.511.511,0,0,1-.463.557Z" transform="translate(-652.768 -1234.121)" fill="#feca2e"/>
      </g>
      <path id="Trazado_675239" data-name="Trazado 675239" d="M627.738,1269.068v-9.788a5.973,5.973,0,0,1,6.177-5.97l67.484,2.313a5.81,5.81,0,0,1,5.6,5.459l.564,9.4Z" transform="translate(-550.42 -1227.635)" fill="#ca7a1f"/>
      <path id="Trazado_675240" data-name="Trazado 675240" d="M649.436,1256.573h-2.9a.512.512,0,1,1,0-1.024h2.9a.512.512,0,1,1,0,1.024Z" transform="translate(-546.955 -1227.21)" fill="#feca2e"/>
      <path id="Trazado_675241" data-name="Trazado 675241" d="M630.891,1265.569a.513.513,0,0,1-.513-.513v-3.96a5.555,5.555,0,0,1,5.549-5.548H646.6a.512.512,0,0,1,0,1.024h-10.67a4.53,4.53,0,0,0-4.525,4.524v3.96A.512.512,0,0,1,630.891,1265.569Z" transform="translate(-549.92 -1227.21)" fill="#feca2e"/>
      <path id="Trazado_675242" data-name="Trazado 675242" d="M604.663,1269.6a6.359,6.359,0,0,1,6.352-6.053l118.009,0a8.722,8.722,0,0,1,8.594,7.234l.1.577a7.49,7.49,0,0,1-7.381,8.769H609.268a4.87,4.87,0,0,1-4.865-5.1Z" transform="translate(-554.843 -1225.695)" fill="#ca7a1f"/>
    </g>
    <g id="Grupo_908506" data-name="Grupo 908506" transform="translate(674.487 1379.333)">
      <g id="Grupo_908504" data-name="Grupo 908504">
        <path id="Trazado_675243" data-name="Trazado 675243" d="M704.545,1373.038s4.89,2.378,5.789,5.111c.722,2.192,6.129,2.474,6.664,6.786a4.949,4.949,0,0,0,4.141,4.35c5.523.846,14.034,3.714,15.394,13.3,1.04,7.319-2.691,10.094-6.606,11.055a5.546,5.546,0,0,0-4.206,6.405c.558,2.786-.274,6-5.1,8.55-10.811,5.7-21.608-13.515-21.608-13.515l-2.214-33.559Z" transform="translate(-632.401 -1352.364)" fill="#333435"/>
        <path id="Trazado_675244" data-name="Trazado 675244" d="M654.062,1366.349s21.587,34.144,47.256,40.739c0,0-5,14.246-8.862,15.876,0,0-31.581-26.349-39.7-51.763Z" transform="translate(-640.747 -1353.631)" fill="#ffedb6"/>
        <path id="Trazado_675245" data-name="Trazado 675245" d="M740.674,1550.3l.7,5.751a2.377,2.377,0,0,0,2.084,2.079,36.816,36.816,0,0,0,7.7.12,2.034,2.034,0,0,0,1.708-2.638c-.705-2.221-2-5.554-3.857-7.515h-6.38A1.965,1.965,0,0,0,740.674,1550.3Z" transform="translate(-624.09 -1319.192)" fill="#feca2e"/>
        <path id="Trazado_675246" data-name="Trazado 675246" d="M699.425,1493.3l-1.078,6.335s3.606,36.528,4.248,51.139a11.443,11.443,0,0,1-1.694,6.507l-6.271,10.183,15.937-9.4.318-1.945-2.609-3.588,3.416-40.921a12.547,12.547,0,0,0-1.429-6.943l-3.3-6.194Z" transform="translate(-632.812 -1329.574)" fill="#ffedb6"/>
        <path id="Trazado_675247" data-name="Trazado 675247" d="M693.962,1559.3h5.085a3.064,3.064,0,0,0,2.431-1.192c1.584-2.06,4.87-6.079,6.441-6.184,2.114-.141,1.844,7.376,1.844,7.376h1.185l1.5-9.341a5.529,5.529,0,0,0-2.9-5.78s-.483,3.574-3.1,5.156-10.665,7.243-10.665,7.243a7.277,7.277,0,0,0-2.066.055A1.345,1.345,0,0,0,693.962,1559.3Z" transform="translate(-633.194 -1319.933)" fill="#feca2e"/>
        <path id="Trazado_675248" data-name="Trazado 675248" d="M717.011,1496.252s21.127,40.074,24.486,49.224a87.948,87.948,0,0,1,4.58,17.506c.07,1.13,1.475,2.212,5.347,2.212a3.715,3.715,0,0,0,3.457-1.576,2.255,2.255,0,0,0,.086-2.186c-1.222-2.473-5.1-10.377-6.536-13.962-1.715-4.28-5.4-23.676-7.427-30.42s-4.31-14.058-13.12-20.8C727.882,1496.252,721.834,1490.329,717.011,1496.252Z" transform="translate(-628.571 -1329.514)" fill="#ffedb6"/>
        <path id="Trazado_675249" data-name="Trazado 675249" d="M710.527,1448.327c-5.45-23.093,8.355-36.153,8.355-36.153-8.711-8.361-24.582-12.166-24.582-12.166s-15.145,11.072-13.349,19.738c1.053,5.079,10.646,30.425,10.646,30.425A21.077,21.077,0,0,0,710.527,1448.327Z" transform="translate(-635.432 -1347.253)" fill="#f3d33f"/>
        <path id="Trazado_675250" data-name="Trazado 675250" d="M721.064,1452.061c-2.217-6.681-12.082-11.432-12.082-11.432a21.077,21.077,0,0,1-18.93,1.844s-1.99,7.6-.616,14.67,9.986,52.477,9.986,52.477c13.573,2.75,34.446-2.767,34.446-2.767C725.224,1491.5,723.283,1458.743,721.064,1452.061Z" transform="translate(-633.888 -1339.555)" fill="#ca7a1f"/>
        <path id="Trazado_675251" data-name="Trazado 675251" d="M701.838,1387.48l4.43,19.9c.425,1.753-1.173,1.465-2.945,1.132-2.9-.547-6.643-1.675-7.895-3.934a2.132,2.132,0,0,1-.226-.75l-1.9-13.8a2.479,2.479,0,0,1,1.451-2.6l3.674-1.63A2.479,2.479,0,0,1,701.838,1387.48Z" transform="translate(-633.069 -1349.987)" fill="#ffedb6"/>
        <path id="Trazado_675252" data-name="Trazado 675252" d="M715.925,1410.235s42.766,42.335-19.254,25.436c0,0-.708-5.351.215-5.26,20.112,2.007,28.524,6.611,12.176-9.241-.578-.561-.4-2.676-.029-3.391C710.165,1415.6,712.755,1411.285,715.925,1410.235Z" transform="translate(-632.475 -1345.315)" fill="#ffedb6"/>
        <g id="Grupo_908502" data-name="Grupo 908502" transform="translate(52.917 11.678)">
          <path id="Trazado_675253" data-name="Trazado 675253" d="M694.512,1372.038s-4.716,3.194-6.743,11.325,1.267,11.048,4.643,10.868,8.272-1.223,12.513-7.056S700.694,1368.136,694.512,1372.038Z" transform="translate(-687.147 -1364.366)" fill="#ffedb6"/>
          <path id="Trazado_675254" data-name="Trazado 675254" d="M700.387,1385.005s1.728-11.651-7.945-9.869l-1.957,2.036s-4.734-5.333.506-9.364,12.511-3,16.534,4.34,5.484,12.494,2.111,17.054-5.908.65-5.908.65,1.546-3.947.263-5.641-2.938.985-2.938.985Z" transform="translate(-686.887 -1365.475)" fill="#333435"/>
          <path id="Trazado_675255" data-name="Trazado 675255" d="M699.609,1383.464s.853-6,3.915-4.281-1.1,5.6-2.773,6.922Z" transform="translate(-684.786 -1362.936)" fill="url(#linear-gradient)"/>
        </g>
        <g id="Grupo_908503" data-name="Grupo 908503">
          <path id="Trazado_675256" data-name="Trazado 675256" d="M656.124,1375.4c-.065.7,2.554,1.191,3.388-1.812-.23-1.3-.636-7.012-1.636-7.9-5.324-4.724-14.816-10.037-14.816-10.037a1.941,1.941,0,0,0,.331,2.688l4.738,3.2a19.154,19.154,0,0,0-1.3,4.953,5.547,5.547,0,0,0,1.4,3.875c.943,1.078,2.212,2.468,3.358,3.524A5.478,5.478,0,0,0,656.124,1375.4Z" transform="translate(-642.66 -1355.657)" fill="#ffedb6"/>
          <path id="Trazado_675257" data-name="Trazado 675257" d="M652.473,1371.855l.724-.3c-.1-.234-2.371-5.761-3.47-6.91a1.669,1.669,0,0,1-.6-1.111.791.791,0,0,1,.244-.488l3.834,2.051,1.694,2.651.66-.422-1.8-2.824-4.492-2.4-.2.165a1.7,1.7,0,0,0-.716,1.22,2.327,2.327,0,0,0,.816,1.7C649.989,1366.055,651.833,1370.295,652.473,1371.855Z" transform="translate(-641.584 -1354.435)" fill="#ffedb6"/>
        </g>
      </g>
      <g id="Grupo_908505" data-name="Grupo 908505" transform="translate(19.32 56.43)">
        <path id="Trazado_675258" data-name="Trazado 675258" d="M706.278,1445.2l-10.35-36.144a1.055,1.055,0,0,0-.892-.759c-1.875-.219-7.308-.833-13.582-1.363-7.557-.64-16.333-1.157-21.577-.717a1.058,1.058,0,0,0-.864,1.522c2.982,6.033,15.248,30.575,21.391,38.613a1.064,1.064,0,0,0,.853.42l24.013-.224A1.058,1.058,0,0,0,706.278,1445.2Z" transform="translate(-658.903 -1402.538)" fill="#333435"/>
        <path id="Trazado_675259" data-name="Trazado 675259" d="M678.254,1404.355l-7.5-1.25a.54.54,0,0,0-.6.7l.743,2.25a.537.537,0,0,0,.44.365l7.22.965a.539.539,0,0,0,.6-.657l-.459-1.965A.541.541,0,0,0,678.254,1404.355Z" transform="translate(-656.777 -1403.098)" fill="#feca2e"/>
        <path id="Trazado_675260" data-name="Trazado 675260" d="M684.431,1410.35l-.618-3.22a.744.744,0,0,0-.655-.6L668,1404.991a.744.744,0,0,0-.8.915l.964,4.012a.744.744,0,0,0,.686.57l14.81.746A.745.745,0,0,0,684.431,1410.35Z" transform="translate(-657.334 -1402.739)" fill="#feca2e"/>
        <path id="Trazado_675261" data-name="Trazado 675261" d="M698.667,1433.582s1.442-5.928.86-8.031-1.708-4.808-5.465-4.207a54.916,54.916,0,0,0-8.186,2.183,2.15,2.15,0,0,0,3.078,1.857l-1.77,1.369s.252,2.193,2.663,1.022l-1.646,1.816a1.919,1.919,0,0,0,2.81.646C692.784,1429.081,693.635,1434.3,698.667,1433.582Z" transform="translate(-653.792 -1399.656)" fill="#ffedb6"/>
      </g>
    </g>
  </g>
</svg>
