<svg xmlns="http://www.w3.org/2000/svg" width="90.672" height="149.887" viewBox="0 0 90.672 149.887">
  <g id="Grupo_909417" data-name="Grupo 909417" transform="translate(-895 -166.619)">
    <g id="Grupo_909415" data-name="Grupo 909415" transform="translate(903.44 218.63)">
      <g id="Grupo_909406" data-name="Grupo 909406" transform="translate(39.982 1.197)">
        <rect id="Rectángulo_313350" data-name="Rectángulo 313350" width="1.227" height="74.047" fill="#fd9927"/>
      </g>
      <g id="Grupo_909409" data-name="Grupo 909409" transform="translate(1.694)">
        <g id="Grupo_909407" data-name="Grupo 909407" transform="translate(0 10.21)">
          <path id="Trazado_741899" data-name="Trazado 741899" d="M-2051.684-2390.662h-1.227v-30.054l29.74-17.17v-37.59h1.227v38.3l-29.74,17.17Z" transform="translate(2052.911 2475.477)" fill="#fd9927"/>
        </g>
        <g id="Grupo_909408" data-name="Grupo 909408" transform="translate(47.423)">
          <path id="Trazado_741900" data-name="Trazado 741900" d="M-1984.523-2433.322v-28.637l-29.74,17.169V-2483.8h1.227v36.881l29.74-17.17v30.764Z" transform="translate(2014.265 2483.796)" fill="#fd9927"/>
        </g>
      </g>
      <path id="Trazado_741901" data-name="Trazado 741901" d="M-2049.338-2407.479a5.475,5.475,0,0,1-2.476,4.29c-1.368.789-2.476.148-2.476-1.431a5.474,5.474,0,0,1,2.476-4.29C-2050.446-2409.7-2049.338-2409.06-2049.338-2407.479Z" transform="translate(2054.291 2500.728)" fill="#fd9927"/>
      <path id="Trazado_741902" data-name="Trazado 741902" d="M-2018.273-2423.47a5.476,5.476,0,0,1-2.478,4.29c-1.367.791-2.476.15-2.476-1.43a5.475,5.475,0,0,1,2.476-4.29C-2019.382-2425.689-2018.273-2425.049-2018.273-2423.47Z" transform="translate(2061.346 2497.096)" fill="#fd9927"/>
      <path id="Trazado_741903" data-name="Trazado 741903" d="M-1986.362-2443.635a5.476,5.476,0,0,1-2.477,4.29c-1.367.789-2.477.15-2.477-1.431a5.477,5.477,0,0,1,2.477-4.29C-1987.471-2445.854-1986.362-2445.214-1986.362-2443.635Z" transform="translate(2068.594 2492.516)" fill="#fd9927"/>
    </g>
    <g id="Grupo_909416" data-name="Grupo 909416" transform="translate(895 166.619)">
      <g id="Grupo_909412" data-name="Grupo 909412" style="isolation: isolate">
        <path id="Trazado_741904" data-name="Trazado 741904" d="M-1997.87-2520.1l6.68,3.883c-2.734-1.589-6.52-1.366-10.7,1.047a23.288,23.288,0,0,0-2.614,1.771l-6.679-3.882a22.834,22.834,0,0,1,2.614-1.77C-2004.39-2521.467-2000.6-2521.69-1997.87-2520.1Z" transform="translate(2072.522 2527.332)" fill="#e0dde1"/>
        <g id="Grupo_909411" data-name="Grupo 909411" transform="translate(6.68 3.881)">
          <path id="Trazado_741905" data-name="Trazado 741905" d="M-2016.31-2519.925c10.554-6.093,19.436-2.878,21.925,6.955a23.222,23.222,0,0,1,2.614-1.771c8.3-4.794,15.057-.944,15.084,8.6.026,8.94-5.862,19.7-13.433,24.971l-50.522,29.258c-8.3,4.794-15.055.946-15.083-8.6s6.68-21.163,14.986-25.957a17.754,17.754,0,0,1,2.614-1.25C-2035.7-2500.387-2026.863-2513.832-2016.31-2519.925Z" transform="translate(2055.725 2523.018)" fill="#f1f1f1"/>
        </g>
        <path id="Trazado_741906" data-name="Trazado 741906" d="M-2040.147-2487.571l-6.679-3.881c2.426-12.67,11.261-26.116,21.816-32.208l6.679,3.881C-2028.884-2513.686-2037.719-2500.241-2040.147-2487.571Z" transform="translate(2064.426 2526.754)" fill="#e0dde1"/>
        <path id="Trazado_741907" data-name="Trazado 741907" d="M-2013-2524.66l6.679,3.882c-4.1-2.383-9.777-2.047-16.043,1.571l-6.679-3.881C-2022.782-2526.706-2017.1-2527.042-2013-2524.66Z" transform="translate(2068.464 2526.181)" fill="#e0dde1"/>
        <path id="Trazado_741908" data-name="Trazado 741908" d="M-2050.1-2456.682l-6.679-3.881c-2.7-1.57-4.372-4.9-4.386-9.644-.027-9.542,6.681-21.164,14.986-25.958a17.7,17.7,0,0,1,2.615-1.248l6.679,3.882a17.7,17.7,0,0,0-2.614,1.249c-8.305,4.794-15.013,16.415-14.986,25.957C-2054.476-2461.586-2052.8-2458.25-2050.1-2456.682Z" transform="translate(2061.169 2532.715)" fill="#e0dde1"/>
      </g>
    </g>
  </g>
</svg>
